<svg xmlns="http://www.w3.org/2000/svg" viewBox="-63.3 -149.1 774.2 561.5" fill="none">
  <path d="M147.38,314.31c-3.82,0-8-1.42-11.7-2.68-2.95-1-6.24-2.11-8.28-2.11-2.3,0-6.25.72-11.11,2.04-4.03,1.09-8.31.35-11.74-2.05-3.44-2.4-5.63-6.19-6-10.38-1.17-13.35-2.54-38.3,1.4-55.39,5.82-25.23,19.81-63.41,32.25-81.1,8.4-11.93,19.16-21.42,24.83-26.02,1.48-1.2,2.02-3.2,1.35-4.98-1.48-3.91-.94-8.3,1.43-11.73,2.38-3.44,6.29-5.49,10.47-5.49h221.3c15.64,0,23.74,2.13,27.08,7.12,3.15,4.69.86,10.27,0,12.37-2.6,6.32-12.2,8.56-30.21,7.08-2.27-.2-4.44.85-5.82,2.79-3.25,4.57-9.69,11.29-21.89,17.39-11.06,5.53-20.35,7-30.19,8.56-8.32,1.31-16.89,2.66-27,6.75-13.03,5.26-14.31,21.15-13.91,30.15.3,6.68-3.43,12.83-9.49,15.66l-24.87,11.63c-8.08,3.78-17.6.52-21.67-7.42l-35.93-70.06c-.92-1.81-2.59-3.09-4.57-3.52-1.98-.43-4.04.03-5.63,1.28l-17.57,13.76c-2.72,2.13-3.4,5.96-1.58,8.9l23.52,37.89c2.01,3.23,2.56,7.18,1.51,10.84-1.05,3.66-3.61,6.72-7.03,8.4l-13.57,6.65c-3.45,1.68-7.47,1.82-11.03.38-3.57-1.45-6.35-4.36-7.63-7.99l-2.38-6.69c-.5-1.41-1.59-2.54-2.99-3.09-1.4-.55-2.96-.47-4.29.23l-6.04,3.16c-1.42.74-2.4,2.08-2.69,3.65l-2.99,16.24c-.22,1.18-.02,2.39.55,3.42,29.03,52.52,24.56,58.11,22.65,60.5-2.03,2.54-4.91,3.83-8.56,3.83M127.4,304.28c2.91,0,6.47,1.21,9.91,2.37,3.53,1.2,7.12,2.42,10.07,2.42,2.06,0,3.44-.57,4.47-1.86.41-.57,3.27-6.93-23.14-54.7-1.16-2.09-1.56-4.54-1.12-6.91l2.99-16.24c.58-3.16,2.55-5.84,5.4-7.34l6.04-3.16c2.68-1.41,5.83-1.58,8.64-.47,2.81,1.1,5,3.36,6,6.21l2.38,6.69c.79,2.22,2.49,4.01,4.67,4.89,2.18.88,4.64.8,6.76-.23l13.56-6.65c2.09-1.03,3.66-2.9,4.3-5.14.64-2.24.31-4.66-.92-6.64l-23.52-37.89c-3.23-5.21-2.03-12,2.8-15.78l17.57-13.76c2.83-2.22,6.46-3.05,9.98-2.27,3.51.77,6.47,3.05,8.11,6.25l35.93,70.06c2.78,5.42,9.28,7.65,14.8,5.07l24.87-11.63c4.14-1.93,6.68-6.13,6.48-10.69-.46-10.38,1.16-28.77,17.17-35.24,10.66-4.31,19.54-5.71,28.12-7.07,9.45-1.5,18.35-2.9,28.69-8.07,11.23-5.62,17.06-11.67,19.97-15.75,2.47-3.46,6.4-5.32,10.52-4.97,20.38,1.68,24.22-2.13,24.93-3.85,1.47-3.56,1.61-5.8.5-7.46-2.16-3.23-9.6-4.81-22.73-4.81h-221.3c-2.46,0-4.76,1.21-6.17,3.23-1.4,2.02-1.71,4.61-.84,6.91,1.47,3.9.29,8.28-2.95,10.89-5.46,4.42-15.81,13.55-23.84,24.96-12.08,17.17-25.72,54.51-31.43,79.26-3.78,16.38-2.43,40.71-1.29,53.75.23,2.64,1.61,5.03,3.78,6.55,2.15,1.5,4.84,1.97,7.38,1.29,5.45-1.47,9.64-2.22,12.47-2.22" stroke="currentColor" stroke-width="3.9" stroke-linecap="round" stroke-linejoin="round" fill="none"/>
</svg>