<svg xmlns="http://www.w3.org/2000/svg" viewBox="1209.4 265.9 893.7 521.0" fill="none">
  <path d="M1683.42,574.89c-27.55-9.97-72.49-32.82-85.61-39.58-4.07-2.1-6.62-6.41-6.5-10.99.04-1.68-.98-3.21-2.54-3.82l-4.38-1.7c-1.89-.73-46.63-17.94-59.04-25.02-7.93-4.52-17-11.63-23.21-16.8-2.42-2.01-5.59-2.84-8.7-2.29l-1.07.19c-5.03.9-9.91-1.96-11.59-6.79-.91-2.62-.74-5.44.47-7.93,1.22-2.5,3.33-4.37,5.95-5.26l34.85-11.96c7-2.4,14.68-1.15,20.55,3.36,3.06,2.35,7,3.34,10.8,2.7l20.21-3.35c4.85-.8,9.79.23,13.91,2.92l19.41,12.66c4.08,2.66,9.29,2.56,13.26-.25,6.48-4.59,15.04-4.88,21.82-.74,7.61,4.65,19.32,12.02,31.89,20.73,14.06,9.73,23.53,20.05,29.01,27,3.37,4.26,4.27,9.87,2.42,14.99-.73,2.02-.56,4.27.45,6.19,3.6,6.76,11.65,19.76,25.19,30.86,14.13,11.59,30.17,20,38.47,23.98,4.55,2.18,6.68,7.41,4.96,12.17-.92,2.54-2.87,4.61-5.35,5.67-2.51,1.08-5.28,1.07-7.79-.02-12.45-5.42-43.55-18.48-63.61-22.61-3.66-.75-8.44-2.2-14.22-4.29,0,0-.01,0-.01,0M1500.74,470.23c1.71.62,3.31,1.53,4.74,2.72,6.05,5.04,14.85,11.95,22.45,16.28,12.07,6.88,56.45,23.96,58.33,24.68l4.39,1.71c3.62,1.41,5.98,4.96,5.88,8.83-.07,2.59,1.37,5.02,3.67,6.21,13.05,6.73,57.74,29.45,84.99,39.32,0,0,0,0,.01,0,5.54,2.01,10.08,3.38,13.49,4.08,20.54,4.23,52.04,17.45,64.64,22.94,1.18.52,2.47.51,3.63.01,1.16-.5,2.07-1.46,2.49-2.65.8-2.22-.19-4.66-2.3-5.67-8.51-4.08-24.97-12.72-39.52-24.65-14.25-11.68-22.72-25.34-26.49-32.45-1.71-3.22-1.99-7.02-.75-10.43,1.23-3.41.63-7.13-1.6-9.97-5.25-6.66-14.35-16.57-27.88-25.94-12.47-8.64-24.09-15.95-31.64-20.57-4.99-3.05-11.29-2.84-16.06.54-5.74,4.07-13.25,4.22-19.15.37l-19.41-12.66c-3.02-1.96-6.64-2.72-10.2-2.14l-20.21,3.35c-5.23.87-10.64-.49-14.84-3.72-4.48-3.44-10.33-4.39-15.67-2.56l-34.85,11.96c-1.3.44-2.34,1.37-2.95,2.6-.6,1.23-.68,2.62-.23,3.92.83,2.39,3.24,3.8,5.73,3.36l1.07-.19c2.79-.5,5.62-.24,8.22.7" stroke="currentColor" stroke-width="4.5" stroke-linecap="round" stroke-linejoin="round" fill="none"/>
</svg>