<svg xmlns="http://www.w3.org/2000/svg" viewBox="-183.6 504.8 863.7 637.5" fill="none">
  <path d="M351.39,950.22c-3.09,0-6.07-.02-8.88-.05h-.45c-2.35-.02-4.55-.04-6.55-.04-20.05,0-170.52.06-227.5.08h0c-4.93,0-8.96-3.07-10.27-7.82-1.29-4.7.66-9.53,4.85-12.01,9.67-5.74,20.74-8.59,32.01-8.21l29.81,1.01c8.43.32,16.04-4.8,18.99-12.72l58.92-157.88c5.35-14.33,20.98-22.02,35.6-17.5,11.88,3.67,18.73,16.37,15.28,28.32l-2.39,8.26c-1.66,5.76-7.01,9.78-13,9.78-5.63,0-10.72-3.54-12.68-8.81l-1.16-3.11c-.28-.74-.85-1.31-1.59-1.57-.74-.26-1.55-.19-2.22.2-1.08.62-1.58,1.93-1.2,3.11,2.71,8.43,11.08,13.78,19.89,12.74l49.29-5.95c9.79-1.18,19.59-.67,29.14,1.52l35.37,8.07c4.25.97,7.18,4.41,7.46,8.76.28,4.35-2.18,8.13-6.27,9.64-16.91,6.23-35.31,8.58-53.21,6.81l-20.68-2.05c-8.45-.82-16.42,3.85-19.82,11.61-4.18,9.55-3.05,20.79,2.95,29.32l8.71,12.37c5.35,7.6,5.2,17.69-.38,25.13-4.37,5.83-11.35,9-18.67,8.5l-10.8-.8c-2.71-.19-5.16.87-6.86,2.98-1.69,2.09-2.22,4.76-1.46,7.34.96,3.24,3.86,5.55,7.23,5.76l94.95,5.86c1.05.07,2.04-.35,2.72-1.19.68-.83.9-1.87.62-2.91-1.51-5.57.07-11.31,4.21-15.37,4.06-3.96,9.7-5.39,15.08-3.81,14.1,4.13,21.86,13.54,21.86,26.5,0,5.73-2.08,10.7-6.19,14.77-11.9,11.8-38.38,13.39-62.72,13.39M335.51,944.89c2.02,0,4.23.02,6.6.04h.44c2.79.03,5.76.05,8.84.05,21.91,0,48.42-1.35,59.04-11.87,3.08-3.05,4.64-6.77,4.64-11.06,0-10.74-6.09-17.96-18.1-21.48-3.55-1.04-7.27-.09-9.95,2.53-2.77,2.71-3.82,6.55-2.82,10.26.72,2.67.13,5.43-1.61,7.58-1.75,2.15-4.35,3.28-7.1,3.11l-94.95-5.86c-5.55-.34-10.34-4.16-11.92-9.5-1.26-4.25-.38-8.67,2.4-12.11,2.77-3.43,6.9-5.23,11.31-4.91l10.8.8c5.51.38,10.8-2.01,14.11-6.42,4.21-5.61,4.32-13.24.29-18.97l-8.71-12.38c-7.05-10.01-8.37-23.2-3.47-34.42,4.31-9.84,14.39-15.76,25.12-14.72l20.68,2.05c17.12,1.7,34.71-.55,50.88-6.51,1.89-.7,2.99-2.38,2.86-4.39-.13-2.02-1.43-3.55-3.4-4l-35.37-8.07c-8.97-2.05-18.17-2.53-27.35-1.43l-49.29,5.95c-11.31,1.35-22.03-5.52-25.5-16.34-1.13-3.52.38-7.4,3.57-9.24,2.01-1.16,4.41-1.37,6.6-.59,2.19.78,3.91,2.48,4.73,4.67l1.16,3.12c1.2,3.24,4.33,5.41,7.78,5.41,3.67,0,6.95-2.47,7.97-6l2.39-8.26c2.66-9.22-2.63-19.03-11.8-21.86-11.97-3.7-24.77,2.6-29.15,14.33l-58.92,157.88c-3.74,10.04-13.42,16.53-24.08,16.12l-29.8-1.01c-10.26-.33-20.35,2.25-29.16,7.48-2.14,1.27-3.13,3.73-2.47,6.13.68,2.45,2.68,3.98,5.22,3.98,56.98-.02,207.45-.08,227.5-.08" stroke="currentColor" stroke-width="4.3" stroke-linecap="round" stroke-linejoin="round" fill="none"/>
</svg>