<svg xmlns="http://www.w3.org/2000/svg" viewBox="431.5 627.9 504.2 434.0" fill="none">
  <path d="M759.75,750.94c5.35,3.59,9.24,9,10.96,15.21l2.47,8.97c.86,3.11,2.51,5.95,4.79,8.22l92.6,92.33c3.43,3.42,4.93,8.31,4.01,13.08-.93,4.77-4.15,8.74-8.62,10.63l-56.49,23.88c-1.1.47-1.93,1.34-2.35,2.45-.42,1.12-.36,2.33.16,3.4,1.61,3.29,1.72,7.11.31,10.48-1.41,3.37-4.21,5.97-7.68,7.12l-19.34,6.45c-6.17,2.06-12.92-.08-16.78-5.32l-45.34-61.55c-5.73-7.78-7.08-17.81-3.63-26.82l6.34-16.55c1.89-4.94,1.72-10.53-.49-15.35l-11.71-25.59c-1.47-3.22-1.5-6.92-.08-10.16,1.41-3.24,4.15-5.73,7.51-6.83l9.74-3.19-13.45-9.03c-1.34-.9-3.09-.92-4.45-.04l-89.37,57.57c-2.62,1.69-4.21,4.56-4.24,7.68-.03,3.12,1.5,6.03,4.09,7.77,4.72,3.17,7.56,8.25,7.78,13.94.22,5.69-2.21,10.97-6.68,14.5-6.81,5.38-16.7,4.94-23.02-1.01l-18.76-17.71c-10.82-10.21-15.19-25.5-11.4-39.9l14.75-55.98c3.43-13.01,13.1-23.31,25.87-27.54,5.61-1.86,11.67-2.44,17.53-1.69l61.34,7.88c3.2.41,6.47-.02,9.46-1.25,9.02-3.72,19.39-2.26,27.07,3.82l2.7,2.15c4.04,3.2,9.28,4.6,14.37,3.83l.93-.14c6.68-1.02,13.46.5,19.08,4.28M770.42,947.06c2.45,1.65,5.58,2.12,8.5,1.14l19.35-6.45c2.04-.68,3.68-2.2,4.51-4.18.83-1.98.77-4.22-.18-6.16-1.16-2.37-1.29-5.05-.37-7.53.92-2.48,2.77-4.41,5.21-5.45l56.49-23.89c2.86-1.21,4.92-3.75,5.52-6.81.59-3.05-.37-6.18-2.57-8.37,0,0,0,0,0,0l-92.6-92.33c-2.92-2.91-5.05-6.56-6.14-10.54l-2.47-8.97c-1.38-5.01-4.52-9.36-8.83-12.26-4.53-3.04-10-4.27-15.38-3.45l-.94.14c-6.52.99-13.24-.81-18.4-4.91l-2.7-2.15c-6.19-4.9-14.55-6.08-21.82-3.08-3.83,1.58-8.02,2.13-12.12,1.61l-61.34-7.88c-5.09-.66-10.35-.15-15.22,1.47-11.08,3.67-19.48,12.61-22.46,23.9l-14.75,55.98c-3.3,12.54.51,25.87,9.93,34.77l18.76,17.71c4.44,4.18,11.4,4.49,16.18.71,3.14-2.48,4.85-6.2,4.69-10.2-.15-4-2.15-7.57-5.47-9.8-4.05-2.72-6.45-7.27-6.41-12.16.05-4.89,2.53-9.39,6.64-12.03l89.36-57.57c3.12-2.01,7.12-1.97,10.2.1l13.74,9.23c1.61,1.08,2.45,2.96,2.19,4.89-.27,1.94-1.58,3.52-3.44,4.13l-10.07,3.3c-1.94.64-3.53,2.08-4.35,3.95-.82,1.88-.8,4.02.05,5.88l11.71,25.59c2.79,6.08,3.01,13.15.61,19.4l-6.34,16.56c-2.82,7.34-1.71,15.51,2.95,21.84l45.34,61.55c.68.93,1.5,1.7,2.42,2.32" stroke="currentColor" stroke-width="2.5" stroke-linecap="round" stroke-linejoin="round" fill="none"/>
</svg>