<svg xmlns="http://www.w3.org/2000/svg" viewBox="-111.5 960.9 991.2 472.5" fill="none">
  <path d="M99.57,1119.99c-1.45-3.27-2.2-6.76-2.2-10.36l-.02-10.02c-.02-11.36,7.27-21.22,18.13-24.53,10.69-3.26,22.15.71,28.52,9.89l3.36,4.84c11.49,16.56,28.63,28.23,48.25,32.85,6.26,1.47,12.7,2.2,19.13,2.16l3.91-.02c2.99-.02,5.61-1.94,6.51-4.78l9.77-30.55c1.78-5.59,7.32-9.22,13.16-8.63,3.46.35,6.53,2.06,8.65,4.81,2.12,2.77,2.98,6.17,2.44,9.59l-5.05,31.7c-.37,2.31-.14,4.69.67,6.89l6.14,16.74,6.34-.81c8.42-1.07,16.05-5.66,20.93-12.6l27.34-38.8c2.92-4.15,7.99-6.07,12.93-4.89l8.38,1.99c1.52.36,3.12-.34,3.88-1.71,1.91-3.43,5.01-5.69,8.73-6.36,3.64-.66,7.34.34,10.16,2.73,22.87,19.38,92.22,78.05,123.76,104.74,10.65,9.01,12.44,24.83,4.07,36l-2.58,3.45c-5.28,7.05-15.05,9.09-22.71,4.73l-5-2.84c-3.81-2.17-7.74-6.89-9.14-11l-3.42-9.87c-1.43-4.12-5.16-6.97-9.5-7.27-21.45-1.51-22.2-2.36-23.56-3.9-5.01-5.68-7.24-15.53-8.22-22.79-.51-3.74-3.57-6.57-7.28-6.7l-12.29-.47c-5.24-.2-10.01-2.74-13.11-6.96-3.1-4.22-4.08-9.53-2.7-14.59,2.53-9.24-1.72-19.03-10.11-23.28-5.35-2.7-11.56-2.86-17.03-.42l-6.64,2.95c-2.99,1.33-5.62,3.4-7.63,5.98l-23.85,30.76c-1.93,2.49-4.69,4.25-7.76,4.94l-20.38,4.58c-6.6,1.48-13.37-2.22-15.74-8.57l-3.55-9.67-12.14,1.55c-8.71,1.11-17.45.58-25.96-1.58l-100.48-25.47c-7.66-1.94-13.9-7.2-17.11-14.42M253.48,1090.34c-.23-.53-.53-1.03-.89-1.5-1.23-1.59-3.01-2.59-5.02-2.79-3.39-.34-6.61,1.77-7.65,5.02l-9.77,30.55c-1.6,5-6.21,8.39-11.47,8.42l-3.91.02c-6.84.04-13.69-.73-20.36-2.3-20.89-4.92-39.12-17.33-51.35-34.96l-3.36-4.84c-5.07-7.3-14.19-10.47-22.69-7.87-8.64,2.64-14.44,10.48-14.42,19.52l.02,10.02c0,2.87.6,5.64,1.75,8.24,2.55,5.75,7.52,9.93,13.61,11.48l100.48,25.47c7.87,2,15.95,2.49,24.01,1.46l14.21-1.81s.08,0,.12-.01c-.02-.04-.03-.08-.05-.11l-6.86-18.7c-1.11-3.03-1.43-6.32-.93-9.51l5.05-31.7c.22-1.41.04-2.81-.53-4.08M259.41,1156.04s.03.08.04.11l4.26,11.61c1.45,3.94,5.62,6.19,9.68,5.28l20.39-4.58c1.89-.42,3.59-1.5,4.77-3.04l23.85-30.77c2.53-3.27,5.87-5.88,9.64-7.56l6.64-2.95c6.91-3.07,14.76-2.88,21.52.54,10.6,5.36,15.98,17.69,12.8,29.33-.96,3.5-.28,7.19,1.87,10.11,2.15,2.93,5.46,4.69,9.09,4.83l12.29.47c6.25.24,11.41,4.96,12.27,11.23,1.24,9.2,3.69,16.28,6.9,19.97.9.38,4.77,1.13,20.06,2.2,6.43.45,11.95,4.68,14.07,10.78l3.43,9.89c.98,2.9,4.09,6.62,6.77,8.15l5,2.84c5.38,3.05,12.23,1.63,15.93-3.32l2.58-3.45c6.71-8.96,5.28-21.64-3.26-28.87-31.54-26.68-100.89-85.36-123.76-104.74-1.63-1.38-3.76-1.95-5.85-1.57-2.15.39-3.96,1.73-5.1,3.77-1.9,3.4-5.87,5.14-9.66,4.25l-8.38-1.99c-2.84-.68-5.76.43-7.44,2.82l-27.34,38.8c-5.73,8.13-14.67,13.52-24.54,14.78l-8.41,1.07s-.08,0-.12.01" stroke="currentColor" stroke-width="5.0" stroke-linecap="round" stroke-linejoin="round" fill="none"/>
</svg>