<svg xmlns="http://www.w3.org/2000/svg" viewBox="16.2 1512.7 753.4 573.9" fill="none">
  <path d="M137.11,1932.59s-.06,0-.09,0c-5.92-.2-10.92-3.78-13.39-9.58-.08-.2-.14-.4-.18-.61l-14.88-92.83c-.98-.83-2.09-1.31-3.35-1.86-2.73-1.18-6.12-2.66-7.77-8.09-.07-.25-.11-.5-.11-.76v-12.71c0-.53.16-1.05.47-1.49.79-1.14,1.16-2.27,1.59-3.58.54-1.66,1.16-3.54,2.67-5.65,2.92-4.09,8.07-7.41,12.62-10.34.8-.52,1.57-1.01,2.29-1.49,13.94-9.3,61-39.82,80.95-42.06,12.9-1.45,25.05.18,37.15,4.97,1.97.78,3.34,1.76,4.56,2.63,1.91,1.36,3.17,2.26,6.38,2.26h.08c8.05-.02,14.03-3.57,20.35-7.32,3.77-2.24,7.67-4.55,12.02-6.05,3.15-1.08,6.01-1.46,8.79-1.82,1.58-.21,3.07-.4,4.61-.72.7-.14,1.4-.54,2.21-.99,1.94-1.09,4.88-2.74,9.01-.59,1.33.69,2.22,1.81,3.01,2.8,1.05,1.32,1.6,1.9,2.43,1.98,1.08.1,2.74-1.04,4.32-2.14,1.6-1.11,3.26-2.26,5.18-2.84,8.53-2.57,14.73-1.95,21.29-1.29,2.67.27,5.43.54,8.44.6,3.87.08,8.62-.08,13.65-.24,14.18-.46,30.27-.98,39.89,2.89,0,0,0,0,0,0,11.51,4.64,14.93,12.13,18.84,23.02.1.28.15.58.15.88v9.88c0,.73-.31,1.43-.85,1.93-.57.52-.79,1.42-1.11,2.85-.28,1.24-.59,2.65-1.35,4.06-5.52,10.2-20.13,14.7-31.09,13.16-10.52-1.48-24.96-13.83-37.71-24.73-6.71-5.74-15.06-12.88-17.34-13.01-1.76.04-5.75,6.58-7.89,10.09-3.43,5.61-6.66,10.91-10.48,12.62-4.55,2.04-9.81,1.86-15.37,1.67-7.89-.27-16.06-.56-22.14,5.97-5.15,5.54-5.49,20.77-4.46,29.66.14,1.2.69,2.22,1.32,3.4,1.23,2.29,2.91,5.44.62,9.99-2.39,4.76-8.44,7.52-14.84,10.44-9.43,4.3-15.62,7.6-15.25,13.75,4.32,10.57,4.62,18.79.9,25.12-6.6,11.24-23.96,13.24-40.75,15.19-5.92.68-11.57,1.34-16.44,2.37,3.19,5.92,4.11,13.66,2.17,20.07-1.73,5.72-5.6,9.79-10.89,11.46-6.09,1.92-13.1,2.73-19.89,3.52-6.72.78-13.66,1.59-19.56,3.45-.25.08-.52.12-.79.12M128.57,1921.24c1.64,3.63,4.61,5.83,8.21,6.1,6.26-1.91,13.28-2.73,20.07-3.52,6.85-.8,13.31-1.55,18.92-3.32,4.6-1.45,6.6-5.14,7.46-7.99,1.83-6.03.39-13.84-3.42-18.58-.55-.68-.72-1.6-.45-2.44.27-.84.94-1.48,1.78-1.72,5.95-1.67,13.14-2.51,20.76-3.39,15.52-1.8,31.56-3.65,36.84-12.64,2.87-4.89,2.42-11.71-1.38-20.85-.1-.24-.16-.49-.19-.75-1.05-10.59,9.21-15.26,18.26-19.39,5.3-2.41,10.77-4.91,12.34-8.02,1.07-2.13.53-3.15-.56-5.17-.73-1.37-1.65-3.08-1.9-5.27-.29-2.51-2.6-24.77,5.82-33.83,7.7-8.28,17.5-7.94,26.15-7.64,4.94.17,9.6.33,13.05-1.21,2.34-1.05,5.57-6.33,8.16-10.57,4.09-6.7,7.62-12.49,12.25-12.59,3.83-.07,9.81,4.83,20.84,14.26,11.6,9.91,26.03,22.25,35.04,23.52,8.98,1.26,21.39-2.38,25.76-10.46.41-.77.62-1.71.85-2.71.32-1.43.7-3.15,1.83-4.64v-8.43c-3.55-9.85-6.14-15.64-15.72-19.51-8.6-3.46-24.77-2.93-37.76-2.51-5.1.16-9.92.32-13.93.24-3.22-.07-6.08-.35-8.85-.63-6.3-.63-11.73-1.17-19.26,1.1-1.13.34-2.44,1.25-3.71,2.13-2.24,1.55-4.77,3.32-7.76,3.05-3.15-.28-4.83-2.39-6.06-3.93-.46-.58-.99-1.24-1.33-1.41-1.62-.84-2.33-.45-4.04.51-1.04.58-2.22,1.25-3.71,1.55-1.73.36-3.39.57-4.99.78-2.63.35-5.11.67-7.76,1.58-3.85,1.33-7.35,3.4-11.05,5.6-6.65,3.95-13.53,8.03-23,8.06h-.09c-4.89,0-7.3-1.72-9.42-3.23-1.06-.76-2.07-1.48-3.45-2.03-11.28-4.47-22.61-5.98-34.63-4.63-14.92,1.67-50.4,22.39-78.64,41.22-.75.49-1.54,1-2.36,1.53-3.95,2.54-8.86,5.7-11.2,8.98-1.05,1.46-1.47,2.74-1.96,4.23-.42,1.28-.89,2.71-1.79,4.21v11.53c.95,2.81,2.39,3.44,4.73,4.45,1.76.77,3.77,1.63,5.61,3.57.36.38.6.87.69,1.39l14.97,93.37Z" stroke="currentColor" stroke-width="3.8" stroke-linecap="round" stroke-linejoin="round" fill="none"/>
</svg>