<svg xmlns="http://www.w3.org/2000/svg" viewBox="1431.5 762.1 669.5 580.4" fill="none">
  <path d="M1521.64,1276.41c3.2.62,6.55,1.09,10.04,1.41,16.38,1.48,26.97-4.74,29.05-17.08,1.79-10.59.14-24.53-1.46-38.02-1.3-11.01-2.53-21.41-2.03-29.94l.06-1.04c.36-6.61.95-9.52,5.09-9.59,3.7-.06,5.17,2.1,7.25,5.65,1.87,3.17,4.19,7.12,9.46,7.06.26,0,.52-.05.77-.14,28.82-10.53,51.33-15.94,72.98-17.52,19.66-1.44,48.55-.06,65.75,5.35,4.86,1.53,8.18,4.85,8.68,8.67.47,3.65-1.65,7.25-5.83,9.9-4.47,2.83-13.59,3.51-21.63,4.11-4.74.36-9.22.69-12.8,1.43-16.14,3.31-19.73,10.11-19.89,15.22-.41,12.96,20.72,27.39,34.87,31.25,4.48,1.22,15.57,3.88,21.78,2.21,6.11-1.64,11.15-10.14,15.6-17.65,1.54-2.59,2.99-5.04,4.23-6.72,2.77-3.75,6.22-7.66,9.86-11.79,14.11-15.99,31.67-35.89,15.02-57.31-6.63-8.52-17.79-13.89-34.11-16.4l-2.38-.37c-14.5-2.25-29.49-4.58-43.79.5-5.52,1.96-9.99,3.99-13.92,5.78-11.46,5.21-18.39,8.36-36.43,3.69-5.31-1.38-9.86-2.8-14.25-4.18-13.03-4.09-23.32-7.33-41.52-5.22-1.86.22-4.6.87-7.76,1.62-7.97,1.89-21.31,5.07-25.17,1.5-.34-.32-1.39-1.28-.93-4.23.55-3.57,7.31-5.24,13.84-6.85,5.94-1.46,12.08-2.98,15.53-6.34,6.17-6,6.82-13.74,7.44-21.23.35-4.14.7-8.41,2.02-12.25,1.79-5.21,5.31-10.98,9.04-17.09,6.2-10.15,12.61-20.65,12.33-30.68-.09-3.32-1.82-6.45-4.86-8.83-4.19-3.28-10.27-4.78-15.11-3.73-5.58,1.21-10.18,8.63-12.65,12.61-15.48,24.93-29.69,51.87-43.42,77.93-14.1,26.76-28.69,54.43-44.7,80-.04.06-.07.12-.1.18-8.74,17.18-9.76,32.77-2.96,45.07,6.42,11.61,19.37,19.62,37,23.06M1488.7,1251.11c-6.01-10.87-4.98-24.92,2.99-40.63,16.08-25.69,30.69-53.4,44.81-80.21,13.69-25.99,27.86-52.86,43.25-77.65,1.81-2.91,6.04-9.73,9.7-10.53,3.46-.75,8.2.44,11.27,2.85,1.37,1.07,3.02,2.86,3.08,5.31.24,8.65-5.8,18.56-11.65,28.13-3.86,6.33-7.51,12.31-9.47,18-1.51,4.39-1.89,8.95-2.26,13.37-.58,6.95-1.13,13.51-6.06,18.3-2.55,2.48-8.07,3.84-13.41,5.16-8.01,1.97-16.29,4.02-17.31,10.64-.55,3.58.24,6.38,2.37,8.34,5.67,5.24,18.82,2.11,29.38-.4,3.02-.72,5.63-1.34,7.22-1.52,17.21-1.99,27.09,1.11,39.6,5.04,4.45,1.4,9.05,2.84,14.48,4.25,19.65,5.08,27.97,1.29,39.51-3.96,3.85-1.75,8.22-3.74,13.55-5.63,13.2-4.69,27.6-2.45,41.53-.28l2.39.37c15.09,2.32,25.28,7.12,31.15,14.67,14.29,18.39-.52,35.17-14.84,51.4-3.72,4.21-7.23,8.19-10.12,12.11-1.37,1.86-2.88,4.41-4.48,7.11-3.6,6.07-8.53,14.38-12.82,15.53-4.18,1.12-13.04-.49-19.36-2.21-14.12-3.84-31.76-17.15-31.46-26.63.2-6.25,8.91-9.34,16.19-10.83,3.29-.67,7.62-1,12.21-1.34,9-.67,18.31-1.37,23.76-4.82,5.77-3.65,8.67-8.9,7.96-14.41-.73-5.63-5.29-10.42-11.89-12.5-17.76-5.59-47.38-7.02-67.48-5.56-21.99,1.61-44.78,7.05-73.82,17.64-2.22-.13-3.29-1.77-5.06-4.77-2-3.4-4.74-8.04-11.33-7.93-8.88.15-9.34,8.47-9.64,13.98l-.06,1.02c-.53,8.95.78,20.04,2.05,30.76,1.56,13.16,3.17,26.77,1.49,36.7-2.23,13.21-16.04,13.97-24.06,13.24-21.16-1.92-36.58-9.76-43.4-22.09" stroke="currentColor" stroke-width="3.3" stroke-linecap="round" stroke-linejoin="round" fill="none"/>
</svg>