<svg xmlns="http://www.w3.org/2000/svg" viewBox="-214.2 1102.6 827.6 563.1" fill="none">
  <path d="M352.56,1608.68c-6.47,0-13.07-.16-19.25-.31-3.32-.08-6.56-.16-9.65-.21-16.35-.27-33.16-.88-49.43-1.47-16.92-.61-34.42-1.25-51.41-1.51-10.4-.16-21.36.1-31.97.35-15.97.37-32.48.76-47.92-.22-2.75-.17-13.83-1.26-17.77-3.37-4.55-2.44-7.59-6.61-8.58-11.74-1.09-5.67.53-11.78,4.35-16.34,3.91-4.67,11.85-8.31,20.26-12.16,8.62-3.95,17.53-8.03,19.75-12.48,3.82-7.62-4.79-12.77-18.36-19.76-10-5.15-19.44-10.01-21.2-17.48-2.28-9.93-6.81-21.34-11.18-32.37-5.16-13.01-10.49-26.46-12.43-38.05-1.88-11.24,2.05-18.73,12.35-23.56,7.05-3.31,22.55-8.11,30.72-2.58,6.92,4.68,10.89,19.37,14.74,33.58,2.13,7.86,4.13,15.28,6.32,19.53,1.29,2.51,2.13,2.73,2.14,2.73.9-.12,3.24-4.01,4.17-9.21,1.33-7.48,2.11-15.51,2.86-23.28.84-8.66,1.7-17.6,3.34-26.02,1.26-6.44,3.6-18.44,15.48-20.92,16.25-3.4,20.34,11.32,23.64,23.13,1.16,4.18,2.26,8.12,3.75,10.97,2.68,5.14,6.49,8.54,10.17,11.83,6.54,5.85,13.31,11.89,10.84,26.55-.34,2-1.46,5.21-2.87,9.27-2.31,6.61-7.66,21.93-4.82,24.59,1.41.39,6.7,1.32,7.65,1.32,16.01-.5,38.61-20.25,46.02-33.32,2.76-4.87,5.7-12.48,8.82-20.53,6.02-15.58,12.25-31.69,20.15-37.28,4.48-3.17,11.25-5.04,15.98-5.49,5.48-.52,24.37.47,29.61,3.32,2.11,1.15,4.38,3.41,7.12,7.11,3.25,4.39,15.5,27.27,16.25,32.16,1.13,7.43-1.02,12.29-4.6,17.31-4.74,6.64-11.04,13.02-17.13,19.18-6.36,6.43-12.94,13.09-17.62,19.95-2.28,3.35-2.67,4.87-2.59,5.56.42,3.54,5.58,11.89,8.35,16.38.55.89,1.04,1.68,1.45,2.36,4.01,6.64,9.1,13.72,14.49,21.22,7.8,10.84,15.86,22.05,20.62,32.16,3.51,7.44,3.73,14.48.62,19.82-2.95,5.06-8.73,8.17-16.28,8.74-5.24.4-11.04.53-16.96.53M216.14,1600.42c2.28,0,4.53.01,6.77.05,17.03.26,34.56.89,51.51,1.51,16.24.59,33.03,1.2,49.33,1.47,3.09.05,6.34.13,9.68.21,11.72.29,25,.61,35.74-.21,6.05-.46,10.4-2.68,12.57-6.42,2.31-3.96,2.02-9.45-.81-15.45-4.58-9.72-12.51-20.75-20.19-31.42-5.45-7.58-10.59-14.73-14.7-21.54h0c-.4-.66-.88-1.45-1.42-2.32-4.47-7.23-8.52-14.07-9.02-18.31-.34-2.87,1.52-6.04,3.37-8.76,4.92-7.22,11.65-14.02,18.16-20.61,5.96-6.03,12.12-12.26,16.64-18.6,3.59-5.03,4.57-8.66,3.78-13.87-.53-3.47-12.05-25.58-15.38-30.07-2.26-3.05-4.14-4.99-5.58-5.78-3.67-1.99-20.93-3.33-26.92-2.77-4.85.46-10.49,2.37-13.7,4.65-6.73,4.77-12.97,20.9-18.48,35.13-3.18,8.22-6.18,15.99-9.11,21.16-7.84,13.84-31.78,35.14-49.99,35.71-1.02,0-8.99-1.14-10.26-2-5.74-3.93-2.27-15.48,2.86-30.18,1.24-3.55,2.41-6.89,2.68-8.5,2.04-12.1-2.98-16.58-9.33-22.25-3.81-3.4-8.12-7.26-11.2-13.16-1.72-3.29-2.88-7.46-4.11-11.88-3.75-13.46-7.04-22.11-18.14-19.79-7.35,1.54-9.97,7.73-11.82,17.22-1.6,8.19-2.45,17.03-3.28,25.57-.76,7.86-1.55,15.98-2.91,23.65-.22,1.24-2.33,12.17-8.11,13.05-2.67.4-5.02-1.36-7.02-5.23-2.41-4.69-4.49-12.35-6.68-20.46-3.28-12.12-7.36-27.21-12.83-30.91-5.6-3.79-18.62-.56-26.08,2.94-8.43,3.95-11.24,9.32-9.7,18.52,1.85,11.1,7.09,24.31,12.16,37.09,4.44,11.2,9.03,22.78,11.39,33.04,1.26,5.34,10.16,9.93,18.77,14.36,12.47,6.42,26.6,13.7,20.41,26.05-2.97,5.92-12.21,10.16-22,14.65-7.56,3.46-15.38,7.05-18.61,10.91-2.92,3.48-4.16,8.13-3.34,12.42.71,3.71,2.91,6.73,6.18,8.48,2.35,1.26,10.95,2.51,15.84,2.82,15.24.97,31.64.58,47.51.21,8.38-.2,16.98-.4,25.38-.4" stroke="currentColor" stroke-width="4.1" stroke-linecap="round" stroke-linejoin="round" fill="none"/>
</svg>