<svg xmlns="http://www.w3.org/2000/svg" viewBox="1382.3 1284.5 468.0 393.3" fill="none">
  <path d="M1781.68,1551.03h-238.48c-11.83,0-22.25-7.56-25.92-18.81-1.45-4.45-4.48-8.19-8.54-10.53l-12.68-7.32c-9.79-5.65-15.86-16.18-15.86-27.48,0-20.9,17-37.9,37.91-37.9h61.58c4.62,0,8.86,2.32,11.36,6.2,2.5,3.88,2.85,8.71.93,12.91l-2.23,4.89c-5.63,12.35-18.04,20.33-31.61,20.33h-31.17c-.1,0-.29,0-.4.27-.1.27.04.4.12.47l29.94,26.24c4.42,3.87,10.09,6,15.96,6h23.22c4.42,0,8.02-3.6,8.02-8.02v-6.38c0-5.71,1.78-11.18,5.16-15.8l25.41-34.74c4.82-6.59,13.78-8.48,20.85-4.4l104.21,60.17c.28.16.53.15.8-.03.27-.19.36-.42.3-.74l-1.82-9.88c-1.53-8.32-7.11-15.25-14.91-18.52-8.68-3.64-13.19-13.51-10.27-22.46,1.53-4.69,4.81-8.48,9.23-10.67,4.43-2.19,9.43-2.51,14.09-.88l27.82,9.68c7.87,2.74,13.15,10.18,13.15,18.51v17.25c0,1.84.74,3.63,2.04,4.93,2.89,2.89,4.48,6.73,4.48,10.82v13.22c0,12.51-10.18,22.69-22.69,22.69M1518.1,1454.21c-18.02,0-32.67,14.66-32.67,32.67,0,9.44,5.08,18.23,13.25,22.95l12.68,7.32c5.18,2.99,9.05,7.76,10.9,13.44,2.97,9.09,11.39,15.2,20.95,15.2h238.48c9.63,0,17.46-7.83,17.46-17.46v-13.22c0-2.69-1.05-5.21-2.95-7.12-2.27-2.27-3.58-5.42-3.58-8.63v-17.25c0-6.11-3.88-11.56-9.64-13.57l-27.82-9.68c-3.32-1.16-6.88-.93-10.04.63-3.15,1.56-5.49,4.26-6.58,7.61-2.08,6.38,1.13,13.41,7.32,16.01,9.43,3.96,16.17,12.34,18.03,22.4l1.82,9.88c.43,2.32-.51,4.61-2.43,5.96-1.92,1.36-4.39,1.47-6.43.29l-104.21-60.17c-4.75-2.74-10.77-1.47-14.01,2.96l-25.4,34.74c-2.72,3.72-4.15,8.11-4.15,12.71v6.38c0,7.31-5.94,13.26-13.25,13.26h-23.22c-7.14,0-14.03-2.59-19.41-7.3l-29.94-26.24c-1.79-1.57-2.4-4.02-1.57-6.25.84-2.23,2.92-3.66,5.29-3.66h31.17c11.53,0,22.07-6.78,26.85-17.27l2.23-4.89c1.17-2.57.96-5.53-.57-7.91-1.53-2.38-4.13-3.8-6.96-3.8h-61.58Z" stroke="currentColor" stroke-width="2.3" stroke-linecap="round" stroke-linejoin="round" fill="none"/>
</svg>