<svg xmlns="http://www.w3.org/2000/svg" viewBox="125.4 -109.4 1168.4 724.0" fill="none">
  <path d="M945.37,129.47c10.76,8.47,28.26,26.49,32.37,41.41,1.58,5.73,1.03,10.56-1.62,14.34-4.34,6.19-44.47,46.16-83.84,81.86-23.03,20.88-42.37,37.24-57.47,48.63-25.56,19.27-32.94,19.6-36.51,17.73-2.08-1.05-51.93-26.38-83.08-53.29-37.76-32.62-67.79-53.06-86.84-59.12-16.43-5.23-42.88-17.83-57.19-24.88-3.53-1.76-5.78-5.27-5.88-9.17-.1-3.94,1.97-7.58,5.41-9.51l37.37-20.92c.11-.06.22-.11.33-.16,12.47-4.83,56.42-21.74,98.47-36.71,78.93-28.1,84.45-25.62,86.8-24.56,5.88,2.61,9.36,11.67,9.09,23.65-.37,16.65-8.45,39.13-30,47.69h0c-8.29,3.29-18.11,6.11-28.51,9.09-20.09,5.77-45.05,12.94-50.39,23.23-1.27,2.45-1.38,4.98-.34,7.96,6.42,18.45,39.3,41.61,58.25,44.78,4.5.76,7.81.28,9.06-1.32,3.56-4.53,5.04-11.76,6.61-19.42,2.71-13.24,6.08-29.72,22.88-36.98,7.61-3.28,24.61-12.45,44.31-23.07,69.19-37.29,95.14-49.91,102.94-46.4,2.49,1.12,5.61,3.4,7.79,5.12M726.2,282.42c30.57,24.07,72.56,45.4,74.48,46.37,1.05.55,12.18,3.23,88.08-65.58,40.97-37.14,79.43-75.79,83.07-80.99,1.72-2.45,2.01-5.79.86-9.95-3.75-13.61-20.73-30.96-30.56-38.69-2.75-2.17-5.13-3.75-6.7-4.45-1.2-.54-6.58-.55-30.57,10.92-18.19,8.7-43.44,22.22-67.74,35.31-19.8,10.68-36.9,19.9-44.72,23.27-14.3,6.17-17.11,19.92-19.83,33.22-1.69,8.29-3.29,16.11-7.62,21.62-2.55,3.23-7.4,4.35-14.04,3.24-21.12-3.53-55.14-27.56-62.32-48.23-1.5-4.31-1.28-8.38.64-12.09,6.37-12.29,31.44-19.49,53.55-25.84,10.31-2.96,20.01-5.74,28.06-8.93,19.18-7.61,26.37-27.89,26.7-42.94.24-10.95-2.94-17.41-6-18.76-2.08-.7-14.45.32-83.63,24.97-41.59,14.82-84.88,31.47-97.44,36.33l-37.21,20.83c-1.74.97-2.78,2.82-2.73,4.8.05,1.96,1.19,3.74,2.97,4.62,14.16,6.97,40.34,19.45,56.45,24.58,19.72,6.27,50.38,27.07,88.68,60.15,2.42,2.09,4.95,4.17,7.57,6.23" stroke="currentColor" stroke-width="30.2" stroke-linecap="round" stroke-linejoin="round" fill="none"/>
</svg>