<svg xmlns="http://www.w3.org/2000/svg" viewBox="895.3 -3.6 651.6 400.7" fill="none">
  <path d="M1302.68,294.33h-123.1c-8.24,0-16.04-3.59-21.41-9.85-3.76-4.39-9.24-6.91-15.02-6.91h-17.92c-11.94,0-23.86-1.45-35.46-4.32l-14.64-3.62c-4.27-1.06-7.76-4.14-9.33-8.25-1.57-4.11-1.02-8.74,1.47-12.37,1.51-2.2,1.03-5.2-1.09-6.82l-13.18-10.09h0c-7.72-5.91-11.16-15.82-8.76-25.25l9.66-37.92s.02-.08.04-.13l2.6-8.4c2.73-8.82,10.77-14.74,19.99-14.74,2.16,0,4.31-.57,6.19-1.64l11.6-6.6c6.86-3.9,15.14-4.05,22.13-.4l36.64,19.12c3.41,1.78,5.9,4.94,6.83,8.68.92,3.74.2,7.7-1.99,10.87-.96,1.39-1.17,3.13-.57,4.65,4.09,10.27,16.92,34.72,47.81,40.05,27.89,4.81,41.62-4.54,47.33-10.54,3.51-3.68,8.13-5.96,13.03-6.42l28.17-2.61c8.18-.75,16.44.65,23.89,4.04l40.15,18.31c7.33,3.34,10.64,11.78,7.54,19.21-14.09,33.8-16.96,34.96-19.05,35.81-1.19.49-2.5.49-3.67-.02-.6-.26-4.99-1.9-35.71-11.94l3.98,17.92c.55,2.49-.04,5.05-1.64,7.03-1.59,1.98-3.96,3.12-6.51,3.12M1056.18,227.95l13.18,10.09c4.33,3.31,5.31,9.43,2.23,13.93-1.52,2.22-1.85,5.04-.9,7.55.96,2.51,3.09,4.39,5.69,5.04l14.64,3.62c11.18,2.77,22.69,4.17,34.2,4.17h17.92c7.31,0,14.24,3.18,18.99,8.73,4.37,5.1,10.72,8.02,17.43,8.02h123.1c.95,0,1.84-.42,2.43-1.16.6-.74.82-1.7.61-2.63l-4-18.03c-.41-1.84.18-3.7,1.57-4.96,1.38-1.25,3.26-1.66,5.05-1.08,12.17,3.98,32.71,10.73,36.06,12.06.83-.57,4.29-4.7,16.05-32.91,2.01-4.81-.14-10.27-4.88-12.44l-40.15-18.31c-6.62-3.02-13.97-4.26-21.24-3.59l-28.17,2.61c-3.63.34-7.09,2.05-9.72,4.82-5.22,5.49-16.31,13.49-36.54,13.49-4.66,0-9.8-.42-15.47-1.4-33.5-5.78-47.38-32.19-51.79-43.27-1.26-3.16-.84-6.73,1.13-9.57,1.34-1.93,1.78-4.35,1.22-6.64-.57-2.28-2.08-4.21-4.17-5.3l-36.64-19.12c-5.42-2.82-11.82-2.71-17.13.31l-11.6,6.6c-2.68,1.52-5.71,2.32-8.78,2.32-6.92,0-12.95,4.44-15,11.06l-2.58,8.34-9.64,37.85c-1.88,7.39.81,15.16,6.87,19.8M1344.62,273.38s0,0,0,0c0,0,0,0,0,0" stroke="currentColor" stroke-width="16.9" stroke-linecap="round" stroke-linejoin="round" fill="none"/>
</svg>