<svg xmlns="http://www.w3.org/2000/svg" viewBox="1411.0 7.1 499.3 378.0" fill="none">
  <path d="M1538.75,315.37c-5.37.5-10.54-1.22-14.57-4.85l-34.02-30.67c-8.02-7.24-11.57-18.29-9.27-28.85l9.23-42.29c1.92-8.8,8.9-15.47,17.78-16.98l39.89-6.83c3.36-.59,6.87.28,9.61,2.38,2.72,2.09,4.47,5.25,4.78,8.66l.2,2.16c.16,1.69,1.61,2.93,3.31,2.82l3.52-.23c6.73-.43,12.48,4.48,13.11,11.19.09.97.61,1.83,1.44,2.35.83.53,1.81.63,2.74.3l33.65-12.19c1-.36,1.62-1.35,1.53-2.41l-.26-2.75c-.52-5.57,3.01-10.7,8.4-12.21l61.26-17.16c.91-.26,1.66-.85,2.12-1.68.46-.83.57-1.78.31-2.69l-4.57-15.83c-.97-3.35-.55-6.86,1.19-9.89,1.73-3.02,4.55-5.16,7.93-6.02l71.4-18.05c3.35-.83,6.81-.32,9.76,1.44,2.96,1.77,5.04,4.58,5.87,7.93,0,0,0,0,0,0l10.23,41.21c1.63,6.54-2.12,13.28-8.54,15.34l-109.05,34.99c-18.26,5.86-35.9,13.75-52.43,23.46l-21.22,12.46c-4.3,2.52-7.44,6.75-8.62,11.59l-2.78,11.37c-1.6,6.56-6.25,12.11-12.41,14.86l-23.02,10.26-2.98,6.1c-2.66,5.46-7.61,9.25-13.57,10.41-.61.12-1.25.21-1.91.27M1549.23,189.98c-.19.02-.37.04-.55.07l-39.9,6.83c-6.76,1.16-12.08,6.23-13.55,12.94l-9.23,42.29c-1.91,8.73,1.03,17.86,7.66,23.84l34.02,30.67c2.93,2.64,6.69,3.89,10.58,3.53.48-.05.95-.11,1.4-.2,4.34-.84,7.94-3.6,9.88-7.57l3.4-6.96c.27-.55.72-.99,1.29-1.24l23.89-10.64c4.7-2.1,8.24-6.33,9.46-11.32l2.78-11.37c1.52-6.21,5.55-11.62,11.06-14.86l21.22-12.46c16.86-9.91,34.86-17.96,53.49-23.94l109.05-34.99c3.81-1.22,6.03-5.22,5.07-9.09l-10.23-41.22c-.49-1.99-1.73-3.66-3.48-4.7-1.75-1.05-3.81-1.35-5.8-.85l-71.39,18.05c-1.99.5-3.65,1.76-4.68,3.55-1.03,1.79-1.28,3.86-.7,5.83l4.57,15.83c.65,2.25.38,4.62-.76,6.68-1.14,2.05-3.01,3.53-5.28,4.17l-61.26,17.17c-2.95.83-4.88,3.64-4.6,6.69l.26,2.75c.32,3.43-1.72,6.64-4.95,7.81l-33.66,12.19c-2.46.88-5.12.59-7.31-.8-2.2-1.4-3.61-3.69-3.85-6.28-.36-3.87-3.68-6.7-7.56-6.45l-3.52.23c-4.55.29-8.43-3.03-8.86-7.56l-.2-2.16c-.18-1.97-1.19-3.79-2.76-4.99-1.43-1.1-3.22-1.61-4.98-1.45" stroke="currentColor" stroke-width="12.9" stroke-linecap="round" stroke-linejoin="round" fill="none"/>
</svg>