<svg xmlns="http://www.w3.org/2000/svg" viewBox="49.0 269.3 414.6 502.3" fill="none">
  <path d="M394.75,635.92H108.32c-3.57,0-6.77-1.85-8.56-4.94-1.8-3.1-1.8-6.8-.01-9.9,4.62-8.03,5.57-17.67,2.59-26.45-5.18-15.29-6.35-31.75-3.38-47.6l23.17-123.54c1.01-5.38,4.31-10,9.08-12.68,4.75-2.68,10.43-3.12,15.56-1.21,5.28,1.98,9.32,6.19,11.07,11.55l4.54,13.87c3.26,9.95,10.05,18.32,19.12,23.56,14.03,8.1,23.54,22.54,25.45,38.63,1.55,13.02,7.87,24.91,17.81,33.47l27.41,23.62c2.6,2.24,3.43,5.74,2.12,8.91-1.3,3.15-4.37,5.04-7.78,4.8l-62.36-4.67c-14.73-1.13-28.97,3.9-39.69,13.86h179.42c1.63,0,3.1-.76,4.05-2.09.95-1.34,1.18-2.94.64-4.5-6.82-19.56-20.75-35.5-39.23-44.87-12.24-6.21-18-20.64-13.41-33.57l16.6-46.76c1.56-4.4,5.41-7.43,10.05-7.93,4.64-.49,9.05,1.67,11.5,5.64l98.85,160.27c3.05,4.95,3.95,10.78,2.53,16.42-1.42,5.64-4.98,10.34-10.01,13.25-3.23,1.87-6.92,2.86-10.67,2.86M140.26,413.66c-2.25,0-4.49.57-6.5,1.71-3.42,1.92-5.79,5.24-6.51,9.09l-23.17,123.54c-2.81,14.97-1.7,30.52,3.19,44.96,3.46,10.2,2.36,21.4-3.01,30.74,0,0,0,0,0,0-.84,1.46-.84,3.2,0,4.66.84,1.46,2.35,2.33,4.04,2.33h286.43c2.83,0,5.61-.74,8.05-2.15,3.8-2.19,6.49-5.74,7.56-10,1.07-4.26.4-8.66-1.91-12.39l-98.85-160.27c-1.38-2.24-3.87-3.46-6.5-3.19-2.62.28-4.8,2-5.68,4.48l-16.6,46.76c-3.72,10.46.94,22.14,10.84,27.15,19.69,9.99,34.54,26.97,41.8,47.81,1.1,3.16.62,6.53-1.31,9.26-1.94,2.73-4.97,4.29-8.31,4.29h-183.74c-1.37,0-2.57-.78-3.14-2.03-.57-1.28-.34-2.71.61-3.73,12.07-13.14,29.17-19.9,46.93-18.54l62.34,4.66c1.19.09,2.13-.5,2.58-1.58.44-1.06.17-2.19-.7-2.95l-27.41-23.62c-10.93-9.42-17.88-22.49-19.59-36.81-1.71-14.46-10.26-27.43-22.87-34.71-10.19-5.88-17.82-15.28-21.48-26.46l-4.54-13.87c-1.26-3.85-4.15-6.86-7.93-8.28-1.51-.56-3.09-.84-4.66-.84M102.01,622.39h.01-.01Z" stroke="currentColor" stroke-width="13.0" stroke-linecap="round" stroke-linejoin="round" fill="none"/>
</svg>