<svg xmlns="http://www.w3.org/2000/svg" viewBox="361.1 173.5 731.4 575.2" fill="none">
  <path d="M836.34,626.34c-4.44-.63-8.67-2.44-12.24-5.24l-15.61-12.24c-11.23-8.81-20.35-19.66-27.11-32.25-9.84-18.37-25.78-33.11-44.87-41.5-6.66-2.92-14.27-2.3-20.35,1.65l-14.04,9.12c-4.87,3.16-10.52,4.85-16.32,4.89l-33.06.2c-6.25.05-11.31-4.82-11.51-11.08-.03-.99-.55-1.81-1.42-2.26-.88-.45-1.85-.4-2.67.15l-58.9,39.41c-3.06,2.04-6.89,1.89-9.77-.39-2.89-2.28-3.92-5.98-2.63-9.43l7.44-19.87c.76-2.04,1.31-4.17,1.61-6.33,1.48-10.4,7.2-19.9,15.7-26.07l27.3-19.82c2.18-1.58,3.82-3.76,4.75-6.29,3.17-8.61,11.14-14.36,20.31-14.63,12.52-.38,24.83-3.95,35.6-10.34,18.44-10.94,38.28-19.29,58.99-24.84l77.67-20.8c7.66-2.04,15.71,1.04,20.03,7.67,2.13,3.26,6.11,4.91,9.9,4.09l12.49-2.67s0,0,0,0c7.52-1.6,15.3,1.71,19.35,8.24l23.64,38.1c2.76,4.46,3.58,9.71,2.29,14.8-1.29,5.09-4.51,9.32-9.07,11.92-8.67,4.95-19.5,2.5-25.19-5.69l-3.97-5.7c-4.6-6.61-12.44-10.21-20.46-9.41l-43.21,4.33c-9.42.95-16.48,8.8-16.43,18.26v1.99c.05,7.47,4.56,14.09,11.51,16.86l31.9,12.71c10.33,4.12,15.7,15.26,12.48,25.91-1.62,5.35.56,11.17,5.29,14.15l7.98,5.02c6.12,3.86,10.37,10.15,11.65,17.28,1.28,7.12-.51,14.5-4.91,20.25-4.22,5.51-10.34,9.03-17.23,9.9-2.31.29-4.63.28-6.92-.05M731.6,528.32c2.39.34,4.74,1,7.02,2,20.16,8.87,36.98,24.43,47.37,43.82,6.41,11.95,15.06,22.24,25.72,30.6l15.61,12.24c4.32,3.38,9.86,4.91,15.28,4.22,5.5-.7,10.38-3.5,13.74-7.9,3.51-4.58,4.94-10.46,3.92-16.14-1.02-5.68-4.4-10.7-9.29-13.77l-7.98-5.02c-6.72-4.23-9.81-12.49-7.51-20.09,2.43-8.03-1.62-16.43-9.41-19.53l-31.9-12.71c-8.93-3.56-14.74-12.08-14.79-21.7v-1.99c-.07-12.17,9.01-22.27,21.13-23.49l43.21-4.33c9.91-.99,19.59,3.47,25.27,11.63l3.97,5.7c4.14,5.95,12.01,7.73,18.31,4.14,3.31-1.89,5.65-4.96,6.59-8.66.94-3.7.35-7.51-1.66-10.75l-23.64-38.1c-2.89-4.66-8.44-7.02-13.81-5.88l-12.49,2.67c-5.9,1.27-12.08-1.28-15.39-6.35-3.09-4.73-8.83-6.93-14.3-5.48l-77.66,20.8c-20.25,5.42-39.65,13.59-57.68,24.29-11.53,6.84-24.71,10.67-38.11,11.07-7.02.21-13.13,4.61-15.56,11.21-1.29,3.5-3.57,6.52-6.59,8.71l-27.3,19.82c-7.36,5.34-12.31,13.57-13.59,22.57-.36,2.53-1,5.03-1.89,7.43l-7.44,19.87c-.48,1.29-.11,2.63.98,3.49,1.08.86,2.47.91,3.61.14l58.9-39.41c2.41-1.61,5.38-1.78,7.97-.46,2.58,1.32,4.17,3.84,4.27,6.74.11,3.4,2.85,6.04,6.24,6.02l33.07-.2c4.8-.03,9.47-1.43,13.5-4.04l14.04-9.12c5.49-3.57,11.98-4.95,18.29-4.06" stroke="currentColor" stroke-width="18.9" stroke-linecap="round" stroke-linejoin="round" fill="none"/>
</svg>