<svg xmlns="http://www.w3.org/2000/svg" viewBox="936.0 296.1 540.8 440.9" fill="none">
  <path d="M1270.58,623.7h-156.09c-6.52,0-13.06-1.5-18.93-4.32l-12.4-5.98c-14.99-7.22-24.67-22.63-24.67-39.27v-21.68c0-3.18-1.5-6.24-4.03-8.19l-5.48-4.23c-3.71-2.87-5.76-7.38-5.48-12.06.28-4.68,2.85-8.91,6.88-11.31l128.63-76.73c13.88-8.28,29.73-13.3,45.84-14.54l60.05-4.59c16.62-1.23,32.67,5.82,42.93,18.85l31.56,40.06c5.17,6.56,7.62,14.75,6.89,23.06l-1.31,15.02c-.57,6.55-3.95,12.53-9.27,16.39-5.31,3.85-12.04,5.22-18.45,3.74l-28.43-6.61c-12.28-2.85-22.51-10.98-28.08-22.29l-3.85-7.81c-3.6-7.31-3.73-15.75-.35-23.17l12.53-27.51-10.98,3.76c-8.73,2.99-15.47,9.71-18.49,18.43l-4.61,13.31c-2.91,8.41-11.14,13.84-20.01,13.19-5.54-.4-10.69-3.14-14.11-7.52-3.42-4.39-4.83-10.04-3.87-15.52l3.04-17.28c.18-1.06-.19-2.06-1.03-2.74-.85-.68-1.9-.84-2.9-.42l-30,12.3c-3.85,1.58-6.22,5.57-5.76,9.7l1.54,13.87c1.04,9.31,7.08,17.24,15.79,20.69l71.54,28.41c15.11,6,24.88,20.39,24.88,36.65v22.74c0,13-10.58,23.58-23.58,23.58M1288.65,425.89c-1.11,0-2.22.04-3.34.12l-60.05,4.59c-15.31,1.17-30.37,5.95-43.56,13.81l-128.63,76.73c-2.54,1.52-4.16,4.18-4.34,7.14-.18,2.95,1.11,5.79,3.45,7.61l5.48,4.23c3.79,2.93,6.06,7.54,6.06,12.33v21.68c0,14.64,8.52,28.2,21.71,34.56l12.4,5.98c5.16,2.49,10.92,3.8,16.66,3.8h156.09c10.12,0,18.35-8.23,18.35-18.35v-22.74c0-14.11-8.47-26.58-21.58-31.79l-71.54-28.42c-10.5-4.17-17.8-13.75-19.05-24.98l-1.54-13.87c-.72-6.44,2.97-12.66,8.97-15.12l30-12.3c2.77-1.14,5.82-.7,8.17,1.19,2.33,1.88,3.42,4.76,2.91,7.72l-3.04,17.28c-.71,4.02.33,8.17,2.84,11.4,2.51,3.22,6.29,5.23,10.36,5.52,6.52.48,12.55-3.51,14.68-9.68l4.61-13.31c3.55-10.25,11.47-18.15,21.73-21.67l13.06-4.48c2-.68,3.72.23,4.58,1.2.85.91,1.58,2.7.71,4.62l-13.45,29.52c-2.73,5.98-2.62,12.79.28,18.68l3.85,7.81c4.87,9.89,13.83,17,24.57,19.5l28.42,6.61c4.93,1.14,10.11.09,14.2-2.87,4.09-2.97,6.69-7.56,7.13-12.61l1.31-15.03c.61-6.98-1.45-13.86-5.79-19.37l-31.56-40.06c-8.5-10.79-21.43-16.99-35.09-16.99" stroke="currentColor" stroke-width="14.0" stroke-linecap="round" stroke-linejoin="round" fill="none"/>
</svg>