<svg xmlns="http://www.w3.org/2000/svg" viewBox="897.5 619.9 546.2 447.1" fill="none">
  <path d="M1155.43,720.65c.33,0,.66,0,.99.02l40.59,1.5c11.98.44,22.08,8.53,25.13,20.14,1.04,3.96,3.41,7.52,6.68,10l12.98,9.88c5.4,4.11,9.03,10.05,10.23,16.73l1.69,9.46c.47,2.64,2.77,4.56,5.46,4.56,3.05,0,5.54-2.49,5.54-5.54v-34.86c0-12.08,9.83-21.91,21.91-21.91s21.91,9.83,21.91,21.91v159.11c0,11.43-9.3,20.73-20.74,20.73s-20.73-9.3-20.73-20.73v-48.68c0-4.3-3.5-7.8-7.8-7.8-2.95,0-5.7,1.71-7,4.36l-11.04,22.54c-3.66,7.46-10.41,12.76-18.52,14.55l-72.76,16.04c-8.59,1.89-17.41,2.85-26.21,2.85h-8.52c-4.57,0-8.8,2.06-11.62,5.64l-27.74,35.25c-3.46,4.4-8.65,6.92-14.24,6.92-5.09,0-9.98-2.16-13.41-5.93-3.43-3.77-5.12-8.84-4.64-13.91l5.63-59.4c.63-6.67,5.42-12.24,11.92-13.86,1.55-.39,2.96-1.3,3.95-2.56l19.34-24.5c2.97-3.77,3.26-9.03.73-13.1l-5.26-8.43c-6.57-10.54-3.41-24.56,7.05-31.26l22.4-14.35c7.14-4.57,12.5-11.54,15.1-19.6l5.56-17.26c3.57-11.09,13.8-18.54,25.45-18.54M1259.17,798.17c-5.22,0-9.68-3.73-10.61-8.87l-1.69-9.46c-.97-5.39-3.9-10.18-8.25-13.49l-12.98-9.88c-4.19-3.19-7.23-7.75-8.57-12.84-2.45-9.36-10.6-15.88-20.26-16.23l-40.6-1.5c-.27-.01-.53-.01-.79-.01-9.23,0-17.64,6.13-20.47,14.91l-5.56,17.27c-2.97,9.22-9.1,17.17-17.25,22.4l-22.4,14.35c-8.06,5.16-10.49,15.96-5.43,24.08l5.26,8.43c3.7,5.94,3.28,13.61-1.06,19.11l-19.34,24.5c-1.7,2.16-4.11,3.72-6.79,4.39-4.35,1.09-7.56,4.82-7.98,9.28l-5.63,59.4c-.34,3.61.86,7.21,3.3,9.89,2.44,2.68,5.91,4.22,9.54,4.22,3.98,0,7.67-1.79,10.13-4.92l27.74-35.25c3.82-4.86,9.55-7.64,15.73-7.64h8.52c8.42,0,16.86-.92,25.09-2.73l72.76-16.04c6.55-1.44,11.99-5.72,14.94-11.74l11.04-22.54c2.17-4.43,6.77-7.29,11.7-7.29,7.18,0,13.03,5.84,13.03,13.03v48.68c0,8.55,6.95,15.5,15.5,15.5s15.5-6.95,15.5-15.5v-159.11c0-9.2-7.48-16.68-16.68-16.68s-16.68,7.48-16.68,16.68v34.86c0,5.94-4.83,10.77-10.77,10.77" stroke="currentColor" stroke-width="14.1" stroke-linecap="round" stroke-linejoin="round" fill="none"/>
</svg>