<svg xmlns="http://www.w3.org/2000/svg" viewBox="1345.3 639.0 594.6 449.5" fill="none">
  <path d="M1776.97,933.1c-.18,0-.37,0-.55,0l-158.39-3.22c-3.13-.06-6.12-1.43-8.22-3.76-2.09-2.33-3.14-5.45-2.87-8.57.05-.58-.13-1.13-.53-1.56-.4-.44-.92-.68-1.5-.69l-51.28-1.03c-19.6-.39-36.34-14.01-40.73-33.12l-4.04-17.63c-.39-1.72-1.91-2.95-3.68-2.99-6.31-.13-11.64-4.74-12.68-10.97l-12.07-72.35c-1.53-9.14,4.34-17.99,13.34-20.14l23.69-5.67c7.74-1.86,15.82,1.71,19.65,8.69,10.12,18.39,35.39,63.07,51.38,80.81,13.72,15.23,31.03,27.95,40.13,34.18,3.58,2.49,8.33,2.66,12.1.44,6.27-3.68,14.11-3.76,20.46-.21l6.83,3.83c1.68.94,3.58,1.43,5.5,1.44l103.46.16c4.77,0,9.44,1.31,13.51,3.77,7.48,4.52,12.2,12.44,12.62,21.18.35,7.32-2.27,14.26-7.39,19.52-4.98,5.12-11.62,7.93-18.75,7.93M1521.6,756.13c-.96,0-1.94.11-2.9.34l-23.69,5.67c-6.35,1.52-10.48,7.75-9.4,14.19l12.07,72.35c.63,3.75,3.84,6.53,7.63,6.6h0c4.17.09,7.73,2.99,8.66,7.05l4.04,17.63c3.85,16.77,18.54,28.72,35.73,29.06l51.28,1.03c2.03.04,3.91.9,5.28,2.41,1.37,1.52,2.03,3.47,1.86,5.51-.14,1.69.42,3.37,1.55,4.63,1.13,1.26,2.74,1.99,4.43,2.03l158.39,3.22c5.84.12,11.36-2.13,15.45-6.34,4.1-4.21,6.2-9.76,5.92-15.62-.34-7-4.11-13.34-10.1-16.96-3.25-1.96-6.99-3.01-10.81-3.01l-103.46-.16c-2.81,0-5.59-.73-8.05-2.1l-6.83-3.83c-4.73-2.65-10.58-2.59-15.26.15-5.53,3.25-12.49,2.99-17.72-.64-9.27-6.35-26.96-19.35-41.04-34.98-16.35-18.14-41.87-63.24-52.08-81.79-2.22-4.04-6.47-6.46-10.94-6.46" stroke="currentColor" stroke-width="15.4" stroke-linecap="round" stroke-linejoin="round" fill="none"/>
</svg>