<svg xmlns="http://www.w3.org/2000/svg" viewBox="1244.2 1471.0 862.3 697.2" fill="none">
  <path d="M1651.84,1930.18c-12.23,0-24.5-.06-36.66-.23-1.61-.02-3.2-.03-4.76-.04-9.07-.06-17.64-.11-27.01-2.6-14.41-3.82-28.79-10.89-42.18-17.95-11.05-5.83-19.98-11.05-28.1-16.44-1.77-1.18-3.53-2.4-5.39-3.7-5.49-3.84-11.16-7.81-16.88-10.08-.58-.23-1.4-.43-2.27-.64-2.75-.67-6.52-1.58-7.87-5.13-1.03-2.69-.29-5.27.31-7.33.14-.5.29-.99.4-1.48.34-1.45.64-2.89.94-4.3,2.12-9.99,4.13-19.42,14.68-25.52,4.31-2.5,8.97-4.32,13.47-6.09,7.67-3.01,14.91-5.85,20.5-11.7,4.72-4.94,4.46-16.76,4.28-25.39-.04-1.9-.08-3.7-.06-5.28.1-9.86.22-20.39.43-30.62.01-.6-.01-1.36-.04-2.2-.11-3.56-.13-6.23.72-8.06.98-2.14,3.14-4.63,7.95-4.33,2.51.16,5.26.8,7.92,1.42,1.75.41,3.4.79,4.9,1.02l.38.06c.12.02.3.05.5.08.19-.38.41-.79.71-1.18,2.09-2.68,5.9-3.81,11.67-3.46,15.38.93,26.95,9.04,30.94,21.71,1.4,4.47,1.51,9.01,1.62,13.41v.19c.08,3.32.04,6.67,0,9.91-.03,2.64-.06,5.36-.03,8.04l127.77-2.46c.45-.02,1.07-.09,1.63-.15.57-.07,1.07-.12,1.37-.12,1.4-.03,2.82-.04,4.25-.04,6.21,0,12.07,0,17.12-2.76,2.96-1.61,6.19-4.63,6.39-5.98.56-3.73-2.18-7.49-5.08-11.48-2.66-3.66-5.42-7.45-6.01-11.8-.29-2.11-.33-4.33-.37-6.49-.02-.82-.03-1.62-.06-2.4-.02-.53-.07-1.1-.11-1.7-.25-3.11-.59-7.37,2.18-10.2,2.49-2.54,6.64-3.2,9.88-1.56,3.13,1.58,6.58,6.3,10.46,11.84.74,1.06,1.4,2,1.94,2.72,4.01,5.36,8.02,10.8,11.99,16.17l.44.59h0c1.07,1.45,2.2,2.9,3.4,4.44,4.98,6.4,10.62,13.66,12.37,21.93.92,4.34.71,8.85.5,13.21-.07,1.46-.14,2.9-.16,4.32-.23,15.09-.34,30.43-.44,45.27-.09,13.04-.19,26.53-.36,39.8-.02,1.67-.01,3.45,0,5.26.02,3.78.05,7.68-.21,11.13-.19,2.59-1.41,4.88-3.52,6.63-.37.3-.82.58-1.3.87-.16.1-.37.22-.56.35,0,.04,0,.08,0,.12.01.54.03,1.22-.14,1.93.12,1.76-.44,3.51-1.59,5-1.36,1.74-3.35,2.84-5.47,3.02-3.19.27-6.71.17-10.12.08-2.01-.06-3.9-.11-5.7-.09-13.62.14-27.48.16-40.88.17-6.1,0-12.2.01-18.3.03-8.11.02-16.22.06-24.34.1-12.52.06-25.26.13-38.04.13M1543.49,1746.27c-1.66,0-2.1.64-2.41,1.31-.39.85-.29,4.13-.24,5.7.03.94.06,1.8.04,2.48-.21,10.2-.33,20.72-.43,30.56-.02,1.5.02,3.26.06,5.12.21,9.55.49,22.62-5.73,29.12-6.39,6.68-14.51,9.87-22.37,12.96-4.52,1.78-8.79,3.45-12.76,5.75-8.53,4.94-10.14,12.51-12.18,22.08-.31,1.44-.62,2.91-.96,4.39-.13.58-.3,1.16-.47,1.75-.46,1.59-.85,2.96-.45,4.01.37.98,2.42,1.47,4.22,1.91,1.01.24,2.05.5,2.98.87,6.28,2.5,12.2,6.65,17.94,10.66,1.83,1.28,3.56,2.49,5.28,3.63,7.97,5.29,16.75,10.42,27.64,16.17,13.12,6.92,27.18,13.83,41.09,17.52,8.73,2.32,16.97,2.37,25.7,2.43,1.58,0,3.18.02,4.8.04,24.83.35,50.13.23,74.61.1,8.12-.04,16.24-.08,24.36-.1,6.1-.02,12.21-.03,18.31-.03,13.4-.02,27.25-.03,40.84-.17,1.9-.02,3.93.04,5.9.09,3.26.09,6.64.18,9.54-.06.66-.05,1.32-.44,1.78-1.02.23-.29.59-.89.48-1.61-.08-.47-.03-.94.15-1.38.01-.13,0-.42,0-.61-.02-.73-.04-1.72.43-2.69.5-1.05,1.53-1.68,2.62-2.35.27-.17.54-.32.7-.45,1-.83,1.54-1.82,1.63-2.99.24-3.23.22-7.03.2-10.71-.01-1.85-.02-3.66,0-5.36.18-13.25.27-26.73.36-39.76.11-14.85.21-30.21.44-45.31.02-1.48.09-3.01.16-4.48.19-4.03.38-8.2-.4-11.89-1.5-7.1-6.52-13.56-11.38-19.8-1.16-1.5-2.37-3.04-3.48-4.55l-.44-.59c-3.96-5.37-7.97-10.79-11.97-16.15-.56-.76-1.26-1.75-2.03-2.86-2.21-3.16-6.32-9.05-8.53-10.17-1.19-.6-2.89-.35-3.78.55-1.1,1.13-.88,3.9-.71,6.13.05.67.1,1.32.13,1.92.03.81.05,1.65.06,2.5.04,2,.08,4.07.32,5.87.42,3.04,2.67,6.15,5.06,9.43,3.23,4.45,6.9,9.5,6.02,15.34-.79,5.23-8.98,9.75-9.06,9.79-7.54,4.11-15.92,3.23-23.76,3.43-.21,0-.53.05-.89.09-.62.07-1.4.16-2.1.19l-128.62,2.47c-.58,0-1.2-.03-1.64-.11-.86-.16-2.37-.76-2.81-3.01-.03-.15-.05-.29-.05-.44-.08-3.27-.04-6.58,0-9.78.04-3.2.08-6.5,0-9.73v-.19c-.11-4.22-.2-8.21-1.38-11.97-3.31-10.51-13.13-17.27-26.26-18.06-5.26-.32-6.81.91-7.24,1.46-.07.1-.14.27-.22.44-.46.93-1.24,2.49-3.04,2.8-.78.13-1.7,0-2.92-.2l-.33-.05c-1.7-.26-3.52-.69-5.29-1.1-2.45-.57-4.99-1.16-7.06-1.29-.16-.01-.32-.01-.46-.01M1791.24,1920.43s0,0,0,0c0,0,0,0,0,0" stroke="currentColor" stroke-width="22.3" stroke-linecap="round" stroke-linejoin="round" fill="none"/>
</svg>