<svg xmlns="http://www.w3.org/2000/svg" viewBox="449.4 1004.1 554.3 441.5" fill="none">
  <path d="M579.4,1190.67l229.65-127.76c6.8-3.78,15.4-1.33,19.18,5.47l3.9,7.02c.85,1.53,2.39,2.55,4.13,2.73l4.96.52c6.96.74,12.25,6.35,12.6,13.33h0s6.09,123.07,6.09,123.07c.04.86.75,1.54,1.61,1.55l7.83.09c3.47.04,6.67,1.8,8.56,4.71,1.89,2.91,2.2,6.55.84,9.73l-7.07,16.46c-1.64,3.83-5.25,6.34-9.41,6.55-4.16.21-8.01-1.92-10.03-5.56l-24.91-44.78c-1.66-2.98-4.92-4.67-8.31-4.31l-13.04,1.38c-5.69.6-11.29-1.65-14.98-6.04-2.61-3.1-7.07-3.93-10.61-1.95l-.14.08-12.97,7.47c-8,4.45-17.79,4.19-25.55-.69-3.1-1.95-6.83-2.81-10.48-2.42l-26.94,2.92c-5.11.55-10,2.07-14.54,4.51l-52.28,28.09c-6.11,3.28-13.59,1.96-18.21-3.19l-14.04-15.65-1.67,7.03c-.83,3.48-3.91,5.88-7.49,5.82l-10.34-.17-7.61,4.46c-2.87,1.58-6.12,1.53-8.77-.1-2.68-1.65-4.23-4.62-4.04-7.76l.68-11.28c.55-8.97,5.56-16.93,13.4-21.3M848.6,1092.24h0c-.22-4.39-3.55-7.92-7.93-8.39l-4.96-.52c-3.43-.36-6.47-2.38-8.15-5.39l-3.9-7.02c-2.38-4.28-7.79-5.82-12.07-3.44l-229.65,127.76c-6.28,3.49-10.29,9.86-10.72,17.04l-.68,11.27c-.07,1.21.53,2.36,1.56,2.99,1.02.63,2.31.63,3.44,0l7.76-4.55c.62-.39,1.41-.61,2.18-.6l10.68.17c1.13.02,2.06-.7,2.32-1.8l2.18-9.16c.38-1.53,1.5-2.65,3-3.02,1.44-.37,2.99.1,4.01,1.23l15.51,17.29c3,3.35,7.87,4.21,11.84,2.07l52.28-28.09c5.13-2.76,10.67-4.48,16.45-5.1l26.94-2.92c4.82-.52,9.73.62,13.83,3.19,6.14,3.86,13.89,4.07,20.22.55l.29-.16,12.82-7.38c5.73-3.19,12.94-1.86,17.16,3.16,2.56,3.05,6.46,4.62,10.42,4.2l13.05-1.38c5.48-.58,10.75,2.16,13.43,6.97l24.91,44.78c1.05,1.89,3.04,2.99,5.19,2.88,2.16-.11,4.02-1.41,4.87-3.39l7.07-16.46c.67-1.57.52-3.37-.41-4.81-.93-1.43-2.52-2.3-4.23-2.33l-7.83-.09c-3.61-.04-6.59-2.9-6.78-6.52l-6.09-123.07Z" stroke="currentColor" stroke-width="14.3" stroke-linecap="round" stroke-linejoin="round" fill="none"/>
</svg>