<svg xmlns="http://www.w3.org/2000/svg" viewBox="877.0 842.7 952.6 590.0" fill="none">
  <path d="M1064.5,1237.87c-2.49-1-4.64-2.18-6-3-2.3-1.36-13.82-8.56-14.87-16.21-.84-6.06,2.18-11.48,5.38-17.21l2.35,1.16-2.28-1.27c1.36-2.43,2.76-4.94,4.04-7.74.77-1.68,1.96-4.7,3.48-8.52l.1-.24c7.05-17.84,20.17-51.05,35.75-67.5,8.98-10.3,39.15-43.52,53.13-41.82,7.75.95,19.97,8.14,34.12,16.46,11.78,6.94,25.09,14.77,37.51,20.02,8.53,3.6,17.78,7.94,26.73,12.13,18.3,8.57,38.95,18.24,45.53,17.59,8.28-.82,15.21-12.85,14.86-21.76-.52-13.29,6.83-18.45,15.76-23.39,6.76-3.73,56.07-17.17,64.08-11.69,4.77,3.27,2.55,10.1-1.14,21.4-1.85,5.69-5.66,17.35-4.45,20.38,1.75.09,5.76-3.02,9.93-15.71,1.12-3.41,3.53-6.14,6.78-7.67,3.23-1.53,7-1.67,10.35-.37l12.26,4.75c4.12,1.56,7.49,5.12,8.88,9.35,1.4,4.25.83,8.86-1.56,12.63-7.24,11.4-23.99,31.56-54.89,38.54-48.65,10.97-88.7.79-108.24-6.26-15.2-5.48-25.9-10.96-32.2-14.59-1.09-.64-2.46-.54-3.37.21-6.95,5.71-12.16,4.23-14.66,2.83-6.68-3.74-10.6-8.75-16.53-16.34-5.78-7.39-39.29-28.3-46.14-26.4-9.91,2.73-30.69,19.82-31.47,23.68-.29,1.66.12,3.33.64,5.46,1.05,4.32,2.36,9.71-1.48,17.27-.47.93-11.76,22.89-22.56,21.89-2.28-.21-7.81,0-10.03,6.52-.49,1.46-1.15,3.16-1.85,4.95-2.62,6.79-7.5,19.43-3.98,23.78,2.06,2.54,8.6,11.51,6.3,20.01-1,3.69-3.62,6.51-7.38,7.93-3.36,1.27-7.68.86-12.85-1.23M1151.14,1082.52c-2.39-.96-4.48-1.6-6.2-1.81-8.47-1.03-31.13,20.07-48.59,40.11-.02.03-.05.06-.07.08-14.9,15.7-27.79,48.33-34.72,65.86l-.1.24c-1.54,3.9-2.76,6.97-3.58,8.78-1.37,2.99-2.82,5.6-4.23,8.12,0,0-.06.11-.06.11-3,5.38-5.37,9.62-4.77,13.95.44,3.16,5.75,8.5,12.36,12.42,0,0,0,0,0,0,1.21.72,3.11,1.76,5.29,2.64,3.85,1.56,6.98,1.97,9.04,1.19,2.21-.83,3.61-2.31,4.17-4.4,1.32-4.86-2.04-11.31-5.31-15.35-5.42-6.71-.45-19.57,3.17-28.96.68-1.75,1.31-3.4,1.77-4.75,2.8-8.21,9.82-10.57,15.46-10.05,4.42.41,12.57-9.52,17.41-19.05,2.97-5.84,2.04-9.64,1.06-13.66-.61-2.5-1.18-4.86-.71-7.6,1.23-7.08,25.07-25.02,35.23-27.82,10.41-2.88,45.97,20.95,51.66,28.22,5.54,7.09,9.2,11.78,14.97,15,2.36,1.32,5.31.54,8.78-2.31,2.61-2.14,6.35-2.42,9.31-.69,6.11,3.52,16.52,8.84,31.36,14.2,19.01,6.85,57.97,16.76,105.32,6.08,29.07-6.56,44.82-25.52,51.62-36.23,1.55-2.44,1.92-5.42,1.01-8.19-.91-2.76-3.12-5.08-5.78-6.1l-12.28-4.76c-2.01-.78-4.27-.7-6.22.22-1.94.92-3.38,2.54-4.05,4.58-5.76,17.53-12,20.1-16.21,19.17-1.4-.31-2.45-1.08-3.13-2.29-2.45-4.3.2-13.37,3.92-24.79,1.98-6.09,4.7-14.42,3.16-15.47-4.75-2.86-49.73,7.06-58.6,11.95-8.16,4.51-13.47,8.24-13.07,18.61.44,11.38-8.19,26.04-19.58,27.17-8.02.79-27.53-8.34-48.19-18.02-8.98-4.21-18.18-8.52-26.62-12.09-12.74-5.38-26.2-13.31-38.08-20.3-9.74-5.73-19.06-11.21-25.94-13.99" stroke="currentColor" stroke-width="24.6" stroke-linecap="round" stroke-linejoin="round" fill="none"/>
</svg>