<svg xmlns="http://www.w3.org/2000/svg" viewBox="457.6 1257.7 775.6 418.6" fill="none">
  <path d="M575.44,1573.36c-4.43-.62-8.03-3.57-9.5-7.83-1.52-4.43-.31-9.15,3.17-12.34,2.06-1.89,4.3-2.61,6.27-3.24,8.13-2.61,16.87-4.96,25.33-7.23l7.11-1.92c7.97-2.18,17.88-4.9,25.69-4.26,1.47.12,2.95.38,4.38.63,1.52.27,2.95.52,4.3.6,1.52.09,3.02-.12,4.61-.34,3.89-.54,8.31-1.16,12.55,3.15.98.99,1.74,2.18,2.47,3.33.75,1.17,1.52,2.38,2.25,2.88,1.88,1.28,3.72.98,6.82.35l.53-.11c7.34-1.48,8.67-2.31,8.73-2.34.49-.35,1-1.91,1.34-2.94.31-.95.64-1.93,1.09-2.81,2.66-5.07,11.51-9.65,16.88-9.85,3.11-.11,5.57.86,7.75,1.72,2.89,1.14,4.98,1.96,8.34.6,3.68-1.49,5.56-3.7,6.26-7.39.07-.36.09-.8.11-1.26.06-1.22.13-2.74,1.12-4.22.84-1.26,2.37-2.03,3.51-2.44,1.15-.42,2.35-.77,3.51-1.11,1.18-.34,2.3-.67,3.35-1.06,3.54-1.31,7.2-2.87,10.74-4.38,1.51-.64,3.01-1.28,4.5-1.9,1.01-.42,2.06-.89,3.13-1.37,4.84-2.17,10.33-4.62,15.81-4.35,1.03.05,2.25.21,3.53.39,1.93.26,4.68.63,6.36.42-.02-.03-.05-.06-.07-.09-.63-.82-1.29-1.67-1.54-2.73-.71-2.94.74-5.82,3.87-7.73l57.05-35.6,5.47-3.16c.87-.73,2.61-1.7,6.2-3.58,8.17-4.28,16.82-8.23,25.17-12.05,6.77-3.1,13.77-6.3,20.45-9.64h0c7.43-3.72,11.3-.56,13.24,2.74,2.53,4.31,1.08,7.76-.2,10.81-.17.41-.35.82-.52,1.25-9.07,22.75-17.85,37.31-38.29,49.12-9.32,5.39-20.26,11.13-32.19,11.11-6.13,0-12.04-1.76-17.75-3.46-3.06-.91-5.96-1.77-8.87-2.37-2.76-.57-4.01-.6-6.46.35-2.75,1.06-8.18,3.76-9.42,4.94-1.09,1.04-1.72,2.44-2.45,4.06-1.1,2.44-2.34,5.21-5.47,7.08-2.81,1.69-5.4,1.5-7.67,1.34-.76-.05-1.47-.11-2.2-.09-13.79.21-26.22,4.55-34.11,11.92-1.46,1.37-2.71,2.63-3.92,3.86-3.53,3.59-6.58,6.68-12.55,9.69-4.92,2.48-9.03,3.27-13.37,4.11-1.65.32-3.36.65-5.19,1.08-6.55,1.57-11.61,5.41-16.96,9.48-4.94,3.76-10.06,7.65-16.52,9.74-11.51,3.72-19.52,3.05-24.48-2.02-.81-.83-1.49-1.95-2.2-3.14-.52-.87-1.39-2.3-1.87-2.68-1.35-.3-2.78,0-4.45.36-1.27.27-2.57.54-4.01.59-4.05.14-7.77-.7-11.38-1.52-3.41-.77-6.63-1.49-9.99-1.4-4.52.13-10.15,1.99-14.34,4.76-2.43,1.6-4.36,3.57-6.23,5.48-4.27,4.35-8.69,8.85-18.12,8.09-.24-.02-.48-.05-.71-.08M634.46,1541.91c-.47-.07-.93-.12-1.38-.16-6.89-.57-16.31,2.01-23.88,4.09l-7.13,1.93c-8.4,2.25-17.08,4.58-25.09,7.16-1.94.62-3.2,1.08-4.33,2.12-1.94,1.79-2.6,4.32-1.76,6.79.67,1.96,2.52,4.14,5.69,4.4,6.99.57,9.91-2.41,13.96-6.54,1.97-2,4.2-4.28,7.09-6.18,5.02-3.31,11.56-5.46,17.07-5.62,4.02-.11,7.72.72,11.29,1.53,3.43.77,6.67,1.51,10.05,1.39.98-.03,2.01-.25,3.1-.48,2.06-.43,4.39-.93,6.95-.28,2.25.57,3.61,2.84,4.93,5.03.51.84,1.08,1.79,1.46,2.19,3.38,3.47,9.82,3.7,19.12.7,5.61-1.81,10.15-5.27,14.96-8.92,5.55-4.22,11.29-8.59,18.91-10.41,1.94-.46,3.7-.8,5.41-1.13,4.15-.8,7.74-1.49,12.01-3.64,5.2-2.62,7.84-5.3,11.18-8.69,1.24-1.26,2.53-2.57,4.07-4.01,8.83-8.25,22.53-13.11,37.61-13.33.95-.01,1.85.05,2.65.11,2.11.15,3.27.19,4.61-.61,1.72-1.03,2.45-2.67,3.39-4.74.83-1.85,1.78-3.96,3.61-5.7,2.32-2.21,9.35-5.34,11.14-6.03,3.64-1.41,5.94-1.32,9.42-.6,3.13.65,6.27,1.58,9.3,2.48,5.6,1.66,10.9,3.24,16.27,3.24,10.63.01,20.84-5.37,29.57-10.41,19.12-11.05,27.42-24.88,36.05-46.53.18-.46.37-.91.55-1.34,1.22-2.9,1.67-4.16.51-6.13-.97-1.65-2.12-2.85-6.38-.71-6.76,3.38-13.81,6.6-20.62,9.72-8.3,3.79-16.87,7.71-24.92,11.92-2.81,1.47-4.54,2.45-5.09,2.82-.17.18-.36.33-.58.46l-5.74,3.31-57,35.57c-.31.19-1.66,1.06-1.54,1.96.11.2.41.59.62.85.94,1.22,2.23,2.9,1.67,4.97-.24.9-.94,2.14-2.88,2.94-2.7,1.11-6.54.59-9.93.14-1.17-.16-2.28-.31-3.09-.35-4.24-.21-9.12,1.98-13.42,3.9-1.12.5-2.21.99-3.26,1.43-1.47.61-2.96,1.25-4.46,1.88-3.59,1.53-7.31,3.12-10.97,4.47-1.22.45-2.48.82-3.7,1.18-1.13.33-2.19.64-3.18,1-.46.17-.83.38-.99.5-.15.31-.18.86-.21,1.5-.03.6-.06,1.27-.2,2-1.04,5.42-4.13,9.1-9.44,11.25-5.3,2.14-9.14.63-12.22-.59-1.94-.77-3.63-1.43-5.64-1.35-3.68.13-10.73,3.8-12.44,7.05-.26.49-.5,1.23-.76,2.01-.65,1.98-1.39,4.21-3.27,5.57-.61.44-2.04,1.47-10.74,3.22l-.51.1c-3.29.67-7.01,1.43-10.8-1.15-1.62-1.1-2.69-2.77-3.72-4.38-.62-.97-1.2-1.88-1.79-2.48-2.29-2.33-4.35-2.16-8.1-1.64-1.69.24-3.61.5-5.65.38-1.65-.1-3.3-.39-4.89-.67-.87-.15-1.71-.3-2.52-.41M846.51,1455.87c-.01.1-.03.2-.06.29.03-.09.05-.19.06-.29M846.51,1455.86s0,0,0,0c0,0,0,0,0,0M846.51,1455.85s0,0,0,0c0,0,0,0,0,0M843.92,1455.49h.01s-.01,0-.01,0Z" stroke="currentColor" stroke-width="20.1" stroke-linecap="round" stroke-linejoin="round" fill="none"/>
</svg>