<svg xmlns="http://www.w3.org/2000/svg" viewBox="994.9 1321.8 516.3 374.8" fill="none">
  <path d="M1065.16,1531.03c-1.68-.87-3.05-2.28-3.86-3.98l-16.72-34.93c-2.12-4.44-1.12-9.68,2.49-13.02l5.27-4.88c.71-.66.91-1.69.51-2.57l-7.71-16.61c-2.39-5.17-.53-11.3,4.33-14.26l66.63-40.53c3.97-2.42,8.77-2.93,13.16-1.4,4.41,1.55,7.85,4.93,9.46,9.27l8.78,23.72,19.89-18.92c3.54-3.37,8.34-4.85,13.15-4.08,4.82.78,8.91,3.69,11.21,7.98l32.8,61.05c1.27,2.36,3.17,4.3,5.5,5.62l66.18,37.45c5.87,3.42,13.78,1.56,17.64-4.12,1.32-1.95,2.11-4.22,2.27-6.56l2.46-34.69c.25-3.51,1.39-6.94,3.29-9.89l16.92-26.39c2.13-3.32,5.89-5.06,9.79-4.54,3.91.51,7.08,3.17,8.26,6.94l3.45,10.93c.33,1.05.91,2.03,1.68,2.83l9.46,9.83c4.31,4.47,5.67,11.12,3.47,16.93l-39.52,104.25c-1.67,4.42-5.22,7.77-9.74,9.19l-18.09,5.66c-4.17,1.31-8.71.77-12.49-1.51l-38.96-23.57c-4.63-2.8-6.83-8.2-5.47-13.44l3.27-12.65c.38-1.46-.3-2.95-1.63-3.64l-13.82-7.12c-1.57-.81-3.5-.19-4.31,1.38l-3.59,6.97c-3.19,6.18-10.81,8.62-16.99,5.43l-36.56-18.84c-4.95-2.55-6.9-8.65-4.35-13.6l3.63-7.05c.29-.56.07-1.25-.49-1.54l-21.9-11.28c-6.36-3.28-10.96-9.15-12.62-16.11l-4.55-19.13-61.37,63.73c-1.97,2.05-4.83,3-7.64,2.55-.91-.15-1.78-.44-2.6-.86M1128.85,1404.37c-.43-.22-.87-.41-1.33-.57-2.9-1.01-6.08-.67-8.71.93l-66.63,40.53c-2.59,1.57-3.57,4.84-2.3,7.59l7.71,16.61c1.36,2.94.68,6.4-1.7,8.6l-5.27,4.88c-1.92,1.78-2.45,4.56-1.32,6.93l16.72,34.93c.48,1,1.47,1.74,2.57,1.92,1.11.18,2.24-.2,3.03-1.02l63.9-66.36c.81-.85,2.01-1.19,3.15-.89,1.16.29,2.08,1.23,2.34,2.42l5.39,22.64c1.3,5.48,4.92,10.09,9.93,12.67l21.9,11.28c3.12,1.61,4.36,5.46,2.75,8.58l-3.63,7.05c-1.23,2.39-.29,5.33,2.09,6.56l36.56,18.84c3.62,1.86,8.08.44,9.94-3.18l3.59-6.97c2.13-4.13,7.22-5.76,11.35-3.63l13.82,7.12c3.52,1.82,5.29,5.76,4.3,9.6l-3.27,12.65c-.77,2.98.48,6.06,3.12,7.65l38.95,23.57c2.48,1.49,5.48,1.85,8.22,1l18.09-5.66c2.97-.93,5.31-3.14,6.41-6.04l39.52-104.25c1.49-3.93.57-8.42-2.34-11.45l-9.46-9.83c-1.33-1.38-2.33-3.07-2.9-4.88l-3.45-10.92c-.57-1.81-2.09-3.09-3.96-3.33-1.88-.25-3.68.59-4.7,2.18l-16.92,26.39c-1.43,2.22-2.28,4.8-2.47,7.44l-2.46,34.68c-.23,3.25-1.32,6.41-3.16,9.13-5.46,8.04-16.29,10.54-24.57,5.72l-66.15-37.44c-3.19-1.8-5.8-4.47-7.54-7.7l-32.8-61.05c-1.53-2.85-4.24-4.77-7.43-5.29-3.19-.51-6.37.47-8.72,2.7l-22.09,21.01c-.78.74-1.83,1.04-2.89.82-.1-.02-.21-.05-.31-.08-1.34-.44-1.87-1.43-2.07-1.98l-9.83-26.54c-.9-2.42-2.67-4.4-4.95-5.58M1135.91,1462.05s0,.04.01.06v-.06ZM1139.31,1462.96h-.01s0,0,.01,0M1148.53,1434.67v.02s0-.01,0-.02" stroke="currentColor" stroke-width="13.4" stroke-linecap="round" stroke-linejoin="round" fill="none"/>
</svg>