<svg xmlns="http://www.w3.org/2000/svg" viewBox="106.3 1533.2 1267.1 553.4" fill="none">
  <path d="M574.99,1917.5c-3.96-1.5-7.21-4.75-8.89-10.97-2.23-8.29.27-16.89,7.05-24.19,8.88-9.57,22.99-14.76,34.3-12.6,3.74.71,7.26,3.16,10.99,5.76,4.5,3.13,9.16,6.37,13.57,5.81,4.58-.58,8.03-4.02,11.68-7.67,2.94-2.95,5.99-5.99,9.8-7.54,8.07-3.29,16.39-3.43,26.2-.46,7.5,2.28,15.28,5.64,23.51,9.19,25.97,11.22,52.81,22.82,74.8,2.32,5.69-5.31,4.93-10,3.97-15.95-.65-4.01-1.39-8.57.07-13.5,1.02-3.44,4.86-7.02,8.25-10.18,1.02-.95,2.29-2.14,3.11-3.02-2.24-1.36-7.4-3.88-14.79-6.99l-1.18-.5c-52.54-22.13-83.82-33.38-92.99-33.47-12.82-.11-21.55,5.67-30,11.27-8.25,5.47-16.78,11.12-28.67,10.95-6.95-.1-27.19-6.83-31.85-16.64-1.71-3.59-1.23-7.22,1.36-10.5,2.3-2.9,7.02-3.79,10.48-4.44l.68-.13c.06-.01.12-.02.18-.03l315.16-38.18c.14-.02.29-.02.44-.02,3.6.17,6.33,1.37,8.1,3.57,3.36,4.17,2.24,10.67,1.34,15.89-.38,2.18-.8,4.64-.61,5.73.23.25.87.7,1.32,1.01,1.67,1.16,4.19,2.9,4.69,6.22,1.3,8.59-9.79,22.91-17.61,25.02-1.66.45-3.8.61-6.06.77-3.37.25-9.02.67-9.4,2.54-.89,4.42,1.88,6.23,8.41,9.32,5.69,2.69,12.76,6.04,11.36,14.52-1.4,8.48-39.7,33-40.08,33.25-49.37,31.34-87.07,47.26-115.26,48.66-11.34.56-19.85-1.58-28.85-3.85-4.07-1.03-8.29-2.09-12.85-2.9-17.74-3.15-35.21.83-53.69,5.04-12.03,2.74-24.46,5.57-36.96,6.24-5.93.32-11.61-.39-17.1-1.07-4.87-.61-9.47-1.18-13.92-1.01-2.82.11-6.25.91-9.88,1.75-6.34,1.48-14.1,3.28-20.19.98M607.99,1875.31c-.52-.2-1.03-.35-1.52-.44-9.49-1.81-21.89,2.83-29.49,11.02-5.51,5.94-7.58,12.78-5.84,19.28,2.74,10.16,10.45,9.14,22.84,6.26,3.88-.9,7.54-1.76,10.87-1.88,4.88-.19,9.91.44,14.77,1.05,5.26.66,10.71,1.33,16.17,1.04,12.05-.65,24.26-3.43,36.07-6.12,18.18-4.14,36.98-8.43,55.77-5.09,4.74.84,9.05,1.93,13.21,2.98,8.62,2.17,16.76,4.22,27.32,3.7,27.25-1.35,64.12-17.01,112.71-47.85,14.5-9.21,36.73-25.74,37.73-29.7.68-4.13-2.05-5.89-8.44-8.92-5.83-2.76-13.09-6.2-11.3-15.09,1.16-5.77,8.36-6.3,14.14-6.73,2-.15,3.9-.29,5.08-.61,5.7-1.54,14.6-13.91,13.8-19.18-.15-1.01-1.05-1.69-2.5-2.7-1.36-.94-2.91-2.01-3.39-3.9-.52-2.08-.05-4.83.5-8.02.72-4.18,1.62-9.39-.26-11.72-.77-.96-2.1-1.49-4.05-1.61l-314.84,38.14-.61.12c-2.19.41-6.26,1.18-7.35,2.55-1.35,1.7-1.57,3.24-.74,5,3.28,6.9,20.68,13.56,27.19,13.65,10.27.14,17.76-4.82,25.7-10.08,9.1-6.03,18.51-12.26,32.93-12.14,14.85.13,75.16,25.53,94.98,33.88l1.18.5c18.29,7.7,18.48,9.37,18.67,10.98.26,2.35-1.89,4.36-5.46,7.68-2.61,2.44-6.19,5.77-6.8,7.84-1.12,3.79-.54,7.38.08,11.17,1.02,6.28,2.17,13.4-5.56,20.61-24.49,22.83-54.22,9.99-80.44-1.34-8.09-3.5-15.74-6.8-22.95-8.99-8.71-2.64-15.71-2.55-22.7.3-2.83,1.15-5.38,3.7-8.07,6.4-3.92,3.92-8.36,8.36-14.72,9.17-6.4.81-12.14-3.19-17.21-6.71-2.65-1.85-5.19-3.61-7.47-4.47M625.81,1813.14h0s0,0,0,0Z" stroke="currentColor" stroke-width="32.8" stroke-linecap="round" stroke-linejoin="round" fill="none"/>
</svg>