<svg xmlns="http://www.w3.org/2000/svg" viewBox="983.4 1612.3 727.1 424.9" fill="none">
  <path d="M1141.17,1911.12c-1.23-.55-2.34-1.34-3.27-2.35l-91.15-97.95c-2.89-3.11-3.94-7.41-2.81-11.51,1.14-4.1,4.26-7.25,8.34-8.42l36.13-10.4c5.88-1.69,12.06.87,15.02,6.21,13.88,25.04,33.97,52.23,44.92,46.44,14.16-7.5,7.53-42.62,5.17-53.2-.66-2.99.3-6,2.58-8.04,2.26-2.02,5.32-2.64,8.17-1.66,10.73,3.69,13.53,9.25,14,13.28.62,5.25-.06,9.89-.74,12.87-.04.19-.02.35.07.49.07.11.18.19.32.22l9.04,2.03c.21.05.38,0,.51-.17.14-.17.17-.34.1-.54l-11.29-29.73c-1.28-3.38-.77-7.14,1.36-10.05,2.13-2.91,5.56-4.54,9.16-4.35l73.13,3.93c2.42,0,65.6,0,104.96-3.62,15.7-1.45,28.92-2.18,39.3-2.17,4.02,0,7.53,2.43,8.94,6.18,1.41,3.76.38,7.9-2.64,10.55l-41.19,36.2c-4.61,4.05-10.24,6.8-16.28,7.93l-19.07,3.58c-5.79,1.09-11.68.39-17.05-2.03l-9.36-4.21c-3.91-1.76-8.48-1.56-12.23.53l-6.48,3.61c-7.12,3.97-15.93,3.04-21.9-2.31-4.72-4.23-13.63-10.98-20.27-8.7-5.78,1.97-9.62,7.94-13.34,13.71-4.02,6.25-8.18,12.7-15.16,13.99-8.56,1.58-10.25,5.34-12.04,9.32-.92,2.04-2.3,5.12-45.95,24.47-4.03,1.79-6.47,5.8-6.23,10.22l1.44,25.85c.24,4.3-2.17,8.18-6.13,9.87-2.64,1.12-5.51,1.1-8.09-.06M1095.22,1785.9c-1.64-.74-3.53-.9-5.38-.37l-36.12,10.4c-2.33.67-4.1,2.46-4.75,4.79-.64,2.33-.05,4.78,1.6,6.55l91.15,97.95c1.4,1.5,3.59,1.97,5.49,1.16,1.91-.81,3.07-2.68,2.96-4.76l-1.44-25.85c-.37-6.61,3.29-12.61,9.33-15.29,37.92-16.82,42.71-20.92,43.27-21.78l.02-.06c1.94-4.32,4.6-10.24,15.86-12.32,4.75-.88,8.13-6.13,11.71-11.68,4.2-6.52,8.55-13.26,16.04-15.83,8.71-2.98,18.65,3.66,25.46,9.75,4.31,3.86,10.69,4.52,15.86,1.63l6.48-3.61c5.18-2.89,11.51-3.16,16.92-.73l9.36,4.21c4.39,1.97,9.21,2.55,13.94,1.66l19.07-3.58c5.12-.96,9.88-3.29,13.79-6.72l41.19-36.2c1.37-1.2,1.83-3.07,1.2-4.77-.64-1.69-2.23-2.79-4.05-2.79-10.22,0-23.28.72-38.82,2.15-40.17,3.7-104.87,3.64-105.52,3.64-.04,0-.09,0-.14,0l-73.2-3.93c-1.83-.1-3.57.73-4.66,2.21-1.08,1.48-1.34,3.39-.69,5.11l11.29,29.73c.76,2.02.38,4.19-1.04,5.82-1.39,1.61-3.54,2.32-5.62,1.85l-9.05-2.03c-1.5-.34-2.78-1.24-3.59-2.53-.84-1.33-1.1-2.91-.75-4.46.59-2.57,1.18-6.57.65-11.08-.54-4.59-6.01-7.4-10.51-8.94-1.06-.36-2.15-.14-2.99.61-.86.77-1.21,1.87-.96,3,4.09,18.3,8.52,50.31-7.82,58.97-16.85,8.91-39.78-26.58-51.94-48.53-.84-1.52-2.13-2.67-3.62-3.34" stroke="currentColor" stroke-width="18.8" stroke-linecap="round" stroke-linejoin="round" fill="none"/>
</svg>